<?xml version="1.0" encoding="UTF-8" standalone="no"?>
<svg
   xmlns:dc="http://purl.org/dc/elements/1.1/"
   xmlns:cc="http://creativecommons.org/ns#"
   xmlns:rdf="http://www.w3.org/1999/02/22-rdf-syntax-ns#"
   xmlns:svg="http://www.w3.org/2000/svg"
   xmlns="http://www.w3.org/2000/svg"
   viewBox="0 0 215.42667 190.03999"
   height="190.03999"
   width="215.42667"
   xml:space="preserve"
   id="svg2"
   version="1.1"><metadata
     id="metadata8"><rdf:RDF><cc:Work
         rdf:about=""><dc:format>image/svg+xml</dc:format><dc:type
           rdf:resource="http://purl.org/dc/dcmitype/StillImage" /></cc:Work></rdf:RDF></metadata><defs
     id="defs6" /><g
     transform="matrix(1.3333333,0,0,-1.3333333,0,190.04)"
     id="g10"><g
       transform="scale(0.1)"
       id="g12"><path
         id="path14"
         style="fill:#007f46;fill-opacity:1;fill-rule:nonzero;stroke:none"
         d="M 0,0 H 1615.75 V 1425.25 H 0 Z" /><path
         id="path16"
         style="fill:#ffffff;fill-opacity:1;fill-rule:nonzero;stroke:none"
         d="m 1598.73,68.0195 c 0.02,-28.1836 -22.85,-51.0468 -51.03,-51.0078 H 68.043 v 0 C 39.8633,17.0039 16.9883,39.8555 17.0156,68.0391 V 1357.23 c -0.0234,28.18 22.8438,51.04 51.0274,51.02 H 1547.72 v 0 c 28.17,0.02 51.05,-22.84 51.03,-51.02 v 0 L 1598.73,68.0195 v 0" /><path
         id="path18"
         style="fill:#007f46;fill-opacity:1;fill-rule:nonzero;stroke:none"
         d="M 1578.32,68.0391 V 795.973 H 37.4258 V 68.0391 C 37.4063,51.1328 51.1211,37.4141 68.0273,37.4219 H 1547.72 v 0 c 16.91,-0.0196 30.62,13.7031 30.6,30.6172 v 0" /><path
         id="path20"
         style="fill:#007f46;fill-opacity:1;fill-rule:nonzero;stroke:none"
         d="M 1578.32,816.379 H 37.4258 v 540.851 c -0.0156,16.91 13.707,30.62 30.6172,30.61 H 1547.72 v 0 c 16.91,0.01 30.62,-13.7 30.6,-30.61 V 816.379" /><path
         id="path22"
         style="fill:#ffffff;fill-opacity:1;fill-rule:nonzero;stroke:none"
         d="m 294.23,940.277 h -61.226 l 6.121,179.603 -65.32,-16.33 v 0 c -7.262,-1.81 -12.938,6.31 -8.735,12.5 v 0 l 91.782,135.68 v 0 c 3.238,4.79 10.293,4.79 13.523,0 v 0 l 91.789,-135.68 v 0 c 4.199,-6.2 -1.48,-14.32 -8.746,-12.49 v 0 l -65.313,16.32 6.125,-179.603 v 0" /><path
         id="path24"
         style="fill:#ffffff;fill-opacity:1;fill-rule:nonzero;stroke:none"
         d="m 149.684,355.168 -30.61,53.016 158.598,84.504 -46.797,48.398 v 0 c -5.211,5.391 -1.02,14.352 6.449,13.816 v 0 l 163.399,-11.64 v 0 c 5.765,-0.41 9.293,-6.524 6.757,-11.719 v 0 L 335.867,384.211 v 0 c -3.269,-6.738 -13.137,-5.871 -15.187,1.328 v 0 l -18.516,64.727 -152.48,-95.098 v 0" /><path
         id="path26"
         style="fill:#ffffff;fill-opacity:1;fill-rule:nonzero;stroke:none"
         d="m 610.914,1162.8 c -2.051,-1.02 -4.508,-1.84 -7.59,-2.45 -3.07,-0.62 -5.945,-0.83 -9.015,-0.83 -7.18,0 -13.532,1.44 -19.075,4.11 -5.535,2.66 -10.046,6.56 -13.539,11.49 -3.687,4.92 -6.351,10.86 -8.195,18.04 -1.844,6.98 -2.875,14.77 -2.875,23.38 0,8.01 1.031,15.39 3.281,21.95 2.262,6.56 5.332,12.11 9.231,16.82 3.894,4.52 8.402,8 13.738,10.67 5.328,2.46 11.273,3.69 17.637,3.69 5.949,0 11.894,-0.82 17.633,-2.26 5.543,-1.64 10.875,-3.89 15.582,-6.56 v 0 l 0.625,20.72 v 0 c -3.907,1.84 -8.821,3.48 -14.563,4.72 -5.945,1.02 -12.516,1.63 -19.691,1.63 -10.461,0 -19.684,-1.84 -27.883,-5.33 -8.41,-3.49 -15.379,-8.61 -21.117,-14.97 -5.75,-6.37 -10.055,-14.16 -13.133,-23.18 -3.074,-9.02 -4.707,-18.87 -4.707,-29.74 0,-10.05 1.426,-19.69 4.09,-28.51 2.668,-9.02 6.976,-16.83 12.511,-23.39 5.539,-6.76 12.715,-11.9 21.118,-15.79 8.418,-3.9 18.457,-5.73 29.734,-5.73 8,0 15.172,0.82 21.539,2.45 6.352,1.44 11.684,3.08 15.578,4.92 v 73.85 h -43.879 v -17.85 h 22.965 v -41.85" /><path
         id="path28"
         style="fill:#ffffff;fill-opacity:1;fill-rule:nonzero;stroke:none"
         d="m 680.367,1189.47 h 60.078 v 7.17 c 0,9.24 -1.019,17.03 -2.863,23.8 -1.855,6.77 -4.519,12.31 -7.996,16.61 -3.492,4.32 -7.793,7.39 -12.512,9.45 -4.926,2.05 -10.258,3.07 -15.996,3.07 -6.562,0 -12.508,-1.23 -17.637,-3.89 -5.332,-2.68 -9.843,-6.57 -13.324,-11.29 -3.492,-4.92 -6.367,-10.67 -8.207,-17.44 -1.847,-6.76 -2.867,-14.15 -2.867,-22.15 0,-7.59 1.02,-14.76 2.867,-21.33 1.84,-6.56 4.512,-12.09 8.403,-16.81 3.695,-4.73 8.417,-8.42 14.156,-11.09 5.738,-2.86 12.508,-4.09 20.097,-4.09 6.563,0 12.508,0.62 17.633,2.04 5.125,1.44 9.227,2.87 12.719,4.31 v 0 l -1.031,17.85 v 0 c -2.664,-1.85 -6.149,-3.69 -10.25,-5.55 -4.309,-1.84 -9.438,-2.86 -15.59,-2.86 -9.844,0 -16.813,2.67 -21.121,8.2 -4.305,5.33 -6.559,13.33 -6.559,24 v 0" /><path
         id="path30"
         style="fill:#ffffff;fill-opacity:1;fill-rule:nonzero;stroke:none"
         d="M 771.672,1142.91 H 793 v 62.36 c 0,8.2 1.645,14.77 5.121,19.48 3.281,4.72 8.207,6.97 14.981,6.97 5.527,0 9.421,-1.84 12.089,-5.53 2.461,-3.69 3.7,-9.65 3.7,-17.85 v -65.43 h 21.32 v 70.35 c 0,11.08 -2.461,19.9 -7.375,26.46 -4.93,6.57 -12.723,9.85 -23.387,9.85 -6.152,0 -11.484,-1.44 -16.203,-4.52 -4.707,-3.07 -8.406,-7.38 -11.066,-12.91 h -0.41 v 0 c 0,0.61 0,1.84 0,3.28 -0.207,1.43 -0.207,3.07 -0.418,4.71 -0.2,1.64 -0.2,3.28 -0.2,4.72 -0.203,1.44 -0.203,2.67 -0.203,3.28 h -20.094 v 0 c 0.2,-3.08 0.411,-6.36 0.614,-9.64 0.203,-3.49 0.203,-6.97 0.203,-10.45 v -85.13" /><path
         id="path32"
         style="fill:#ffffff;fill-opacity:1;fill-rule:nonzero;stroke:none"
         d="m 917.008,1261.05 h 14.558 l -13.32,29.75 h -22.148 l 20.91,-29.75 v 0" /><path
         id="path34"
         style="fill:#ffffff;fill-opacity:1;fill-rule:nonzero;stroke:none"
         d="m 901.227,1189.47 h 60.078 v 7.17 c 0,9.24 -1.016,17.03 -2.864,23.8 -1.855,6.77 -4.519,12.31 -7.996,16.61 -3.488,4.32 -7.793,7.39 -12.511,9.45 -4.922,2.05 -10.254,3.07 -15.996,3.07 -6.551,0 -12.508,-1.23 -17.625,-3.89 -5.344,-2.68 -9.856,-6.57 -13.333,-11.29 -3.496,-4.92 -6.367,-10.67 -8.21,-17.44 -1.848,-6.76 -2.864,-14.15 -2.864,-22.15 0,-7.59 1.016,-14.76 2.864,-21.33 1.843,-6.56 4.511,-12.09 8.406,-16.81 3.691,-4.73 8.41,-8.42 14.152,-11.09 5.742,-2.86 12.508,-4.09 20.098,-4.09 6.562,0 12.508,0.62 17.637,2.04 5.117,1.44 9.226,2.87 12.714,4.31 v 0 l -1.027,17.85 v 0 c -2.676,-1.85 -6.152,-3.69 -10.254,-5.55 -4.305,-1.84 -9.433,-2.86 -15.586,-2.86 -9.844,0 -16.816,2.67 -21.121,8.2 -4.309,5.33 -6.562,13.33 -6.562,24 v 0" /><path
         id="path36"
         style="fill:#ffffff;fill-opacity:1;fill-rule:nonzero;stroke:none"
         d="m 1012.11,1142.91 h 25.23 l 31.79,105.22 h -21.33 l -22.56,-84.5 h -0.41 l -22.15,84.5 h -22.547 l 31.977,-105.22 v 0" /><path
         id="path38"
         style="fill:#ffffff;fill-opacity:1;fill-rule:nonzero;stroke:none"
         d="m 1106.4,1189.47 h 60.08 v 7.17 c 0,9.24 -1.02,17.03 -2.86,23.8 -1.86,6.77 -4.51,12.31 -8,16.61 -3.49,4.32 -7.79,7.39 -12.51,9.45 -4.92,2.05 -10.25,3.07 -16,3.07 -6.56,0 -12.5,-1.23 -17.62,-3.89 -5.35,-2.68 -9.86,-6.57 -13.33,-11.29 -3.5,-4.92 -6.37,-10.67 -8.21,-17.44 -1.84,-6.76 -2.87,-14.15 -2.87,-22.15 0,-7.59 1.03,-14.76 2.87,-21.33 1.84,-6.56 4.51,-12.09 8.4,-16.81 3.69,-4.73 8.42,-8.42 14.15,-11.09 5.75,-2.86 12.51,-4.09 20.1,-4.09 6.56,0 12.51,0.62 17.64,2.04 5.12,1.44 9.22,2.87 12.71,4.31 v 0 l -1.02,17.85 v 0 c -2.67,-1.85 -6.16,-3.69 -10.26,-5.55 -4.3,-1.84 -9.43,-2.86 -15.58,-2.86 -9.85,0 -16.82,2.67 -21.13,8.2 -4.29,5.33 -6.56,13.33 -6.56,24 v 0" /><path
         id="path40"
         style="fill:#ffffff;fill-opacity:1;fill-rule:nonzero;stroke:none"
         d="m 527.258,918.422 h 69.101 v 18.254 h -46.961 v 124.904 h -22.14 V 918.422" /><path
         id="path42"
         style="fill:#ffffff;fill-opacity:1;fill-rule:nonzero;stroke:none"
         d="m 672.953,918.422 h 19.277 v 0 c -0.203,1.848 -0.613,4.512 -0.82,7.586 -0.207,3.07 -0.414,6.351 -0.414,9.844 v 50.253 c 0,6.977 -0.613,12.719 -2.047,17.235 -1.433,4.5 -3.695,8.2 -6.355,11.27 -2.258,2.67 -5.953,5.13 -10.871,7.39 -4.922,2.05 -11.274,3.07 -19.278,3.07 -6.765,0 -12.715,-0.82 -17.836,-2.46 -5.125,-1.64 -9.843,-3.48 -13.742,-5.73 v 0 l 1.637,-18.267 v 0 c 2.668,2.667 6.562,5.127 11.691,7.387 4.922,2.05 10.254,3.07 16.2,3.07 7.585,0 12.918,-2.05 16.199,-6.14 1.644,-2.05 2.875,-4.317 3.488,-6.774 0.613,-2.664 0.82,-5.543 0.82,-8.828 v -4.297 h -7.589 v 0 c -17.02,0 -30.137,-2.875 -38.961,-8.418 -8.813,-5.742 -13.321,-14.758 -13.321,-27.074 0,-4.918 0.809,-9.234 2.457,-13.125 1.633,-3.894 3.895,-6.969 6.766,-9.641 2.668,-2.664 5.949,-4.503 9.633,-5.742 3.691,-1.426 7.59,-2.039 11.894,-2.039 7.793,0 13.946,1.625 18.668,4.91 4.508,3.082 8.196,6.77 10.86,10.871 h 0.414 v 0 c 0,-0.609 0,-1.64 0.203,-3.082 0,-1.429 0,-2.867 0.207,-4.3 0.207,-1.434 0.207,-2.875 0.406,-4.102 0.203,-1.441 0.203,-2.258 0.414,-2.867 v 0" /><path
         id="path44"
         style="fill:#ffffff;fill-opacity:1;fill-rule:nonzero;stroke:none"
         d="m 783.492,918.422 h 20.094 v 0 c -0.203,3.074 -0.406,6.351 -0.617,9.84 -0.196,3.285 -0.196,6.765 -0.196,10.258 v 85.12 h -21.332 v -61.738 c 0,-8.207 -1.64,-14.769 -4.718,-19.691 -3.071,-4.926 -8.203,-7.383 -14.965,-7.383 -5.543,0 -9.434,1.848 -12.098,5.531 -2.672,3.7 -4.109,9.645 -4.109,17.848 v 65.433 h -21.317 v -70.355 c 0,-11.074 2.457,-19.894 7.379,-26.461 4.922,-6.554 12.715,-9.832 23.379,-9.832 7.172,0 12.914,1.625 17.219,5.117 4.109,3.282 7.391,7.387 10.055,12.305 h 0.406 l 0.82,-15.992 v 0" /><path
         id="path46"
         style="fill:#ffffff;fill-opacity:1;fill-rule:nonzero;stroke:none"
         d="m 836.969,922.516 c 3.281,-1.438 7.383,-2.868 12.508,-3.899 4.921,-1.012 10.461,-1.625 16.406,-1.625 11.894,0 20.91,2.856 27.265,8.805 6.153,5.945 9.239,13.539 9.239,22.98 v 0 c 0,6.356 -1.856,11.481 -5.332,15.371 -3.7,3.903 -8.614,7.809 -14.969,11.286 v 0 l -9.238,5.129 v 0 c -4.719,2.664 -8.196,4.925 -10.86,7.187 -2.668,2.051 -3.898,4.918 -3.898,8.406 0,3.688 1.23,6.774 3.898,9.024 2.664,2.26 6.563,3.28 11.895,3.28 4.297,0 8.406,-0.41 11.894,-1.23 3.477,-1.02 6.758,-2.05 9.629,-3.28 v 0 l 1.035,17.23 v 0 c -2.265,0.82 -5.332,1.64 -9.433,2.67 -4.317,0.81 -9.231,1.22 -14.778,1.22 -5.32,0 -10.046,-0.82 -14.343,-2.46 -4.317,-1.64 -8,-3.89 -11.074,-6.56 -3.086,-2.87 -5.54,-6.15 -7.188,-9.64 -1.633,-3.69 -2.453,-7.586 -2.453,-11.488 0,-3.692 0.617,-6.973 1.641,-9.84 1.027,-2.875 2.46,-5.336 4.308,-7.594 1.836,-2.254 3.887,-4.105 6.563,-5.746 2.664,-1.84 5.535,-3.48 8.816,-5.121 v 0 l 11.074,-5.543 v 0 c 4.719,-2.254 7.989,-4.715 9.844,-7.176 1.633,-2.461 2.461,-5.125 2.461,-7.789 0,-4.105 -1.641,-7.191 -4.93,-9.234 -3.273,-2.258 -7.785,-3.281 -13.32,-3.281 -5.129,0 -10.059,0.816 -14.356,2.668 -4.316,1.64 -8,3.285 -11.074,4.711 v 0 l -1.23,-18.461 v 0" /><path
         id="path48"
         style="fill:#ffffff;fill-opacity:1;fill-rule:nonzero;stroke:none"
         d="m 990.258,918.422 h 19.282 v 0 c -0.21,1.848 -0.62,4.512 -0.83,7.586 -0.2,3.07 -0.41,6.351 -0.41,9.844 v 50.253 c 0,6.977 -0.61,12.719 -2.05,17.235 -1.43,4.5 -3.69,8.2 -6.352,11.27 -2.257,2.67 -5.949,5.13 -10.859,7.39 -4.934,2.05 -11.289,3.07 -19.277,3.07 -6.77,0 -12.727,-0.82 -17.844,-2.46 -5.125,-1.64 -9.844,-3.48 -13.738,-5.73 v 0 l 1.629,-18.267 v 0 c 2.675,2.667 6.574,5.127 11.691,7.387 4.922,2.05 10.262,3.07 16.211,3.07 7.578,0 12.91,-2.05 16.191,-6.14 1.641,-2.05 2.871,-4.317 3.485,-6.774 0.617,-2.664 0.82,-5.543 0.82,-8.828 v -4.297 h -7.586 v 0 c -17.023,0 -30.137,-2.875 -38.965,-8.418 -8.808,-5.742 -13.32,-14.758 -13.32,-27.074 0,-4.918 0.82,-9.234 2.461,-13.125 1.629,-3.894 3.894,-6.969 6.766,-9.641 2.667,-2.664 5.949,-4.503 9.64,-5.742 3.68,-1.426 7.578,-2.039 11.883,-2.039 7.793,0 13.945,1.625 18.664,4.91 4.52,3.082 8.203,6.77 10.867,10.871 h 0.422 v 0 c 0,-0.609 0,-1.64 0.195,-3.082 0,-1.429 0,-2.867 0.204,-4.3 0.207,-1.434 0.207,-2.875 0.41,-4.102 0.207,-1.441 0.207,-2.258 0.41,-2.867 v 0" /><path
         id="path50"
         style="fill:#ffffff;fill-opacity:1;fill-rule:nonzero;stroke:none"
         d="m 1043.71,918.422 h 21.33 v 62.344 c 0,8.214 1.64,14.777 5.13,19.494 3.28,4.72 8.21,6.97 14.97,6.97 5.54,0 9.43,-1.84 12.09,-5.53 2.47,-3.7 3.7,-9.649 3.7,-17.852 v -65.426 h 21.32 v 70.348 c 0,11.074 -2.45,19.9 -7.37,26.46 -4.92,6.56 -12.72,9.84 -23.38,9.84 -6.16,0 -11.5,-1.43 -16.21,-4.51 -4.71,-3.07 -8.41,-7.38 -11.07,-12.92 h -0.41 v 0 c 0,0.62 0,1.85 0,3.29 -0.2,1.43 -0.2,3.07 -0.42,4.71 -0.19,1.64 -0.19,3.28 -0.19,4.72 -0.21,1.43 -0.21,2.66 -0.21,3.28 h -20.1 v 0 c 0.21,-3.08 0.41,-6.36 0.62,-9.64 0.2,-3.49 0.2,-6.98 0.2,-10.45 v -85.128" /><path
         id="path52"
         style="fill:#ffffff;fill-opacity:1;fill-rule:nonzero;stroke:none"
         d="m 1157.5,918.422 h 21.32 v 62.344 c 0,8.214 1.65,14.777 5.13,19.494 3.28,4.72 8.21,6.97 14.98,6.97 5.53,0 9.43,-1.84 12.09,-5.53 2.47,-3.7 3.69,-9.649 3.69,-17.852 v -65.426 h 21.33 v 70.348 c 0,11.074 -2.46,19.9 -7.38,26.46 -4.93,6.56 -12.72,9.84 -23.38,9.84 -6.15,0 -11.49,-1.43 -16.2,-4.51 -4.71,-3.07 -8.41,-7.38 -11.08,-12.92 h -0.4 v 0 c 0,0.62 0,1.85 0,3.29 -0.21,1.43 -0.21,3.07 -0.42,4.71 -0.19,1.64 -0.19,3.28 -0.19,4.72 -0.22,1.43 -0.22,2.66 -0.22,3.28 h -20.09 v 0 c 0.21,-3.08 0.41,-6.36 0.62,-9.64 0.2,-3.49 0.2,-6.98 0.2,-10.45 v -85.128" /><path
         id="path54"
         style="fill:#ffffff;fill-opacity:1;fill-rule:nonzero;stroke:none"
         d="m 1286.36,964.977 h 60.08 v 7.175 c 0,9.235 -1.01,17.024 -2.86,23.793 -1.86,6.775 -4.52,12.315 -8,16.615 -3.49,4.32 -7.79,7.39 -12.51,9.44 -4.92,2.05 -10.25,3.07 -16,3.07 -6.56,0 -12.5,-1.22 -17.62,-3.89 -5.33,-2.67 -9.86,-6.57 -13.33,-11.28 -3.5,-4.92 -6.37,-10.67 -8.21,-17.439 -1.84,-6.77 -2.87,-14.148 -2.87,-22.148 0,-7.594 1.03,-14.774 2.87,-21.336 1.84,-6.563 4.51,-12.098 8.4,-16.813 3.71,-4.719 8.42,-8.418 14.16,-11.086 5.74,-2.859 12.5,-4.086 20.09,-4.086 6.57,0 12.51,0.613 17.64,2.039 5.12,1.434 9.23,2.871 12.71,4.309 v 0 l -1.03,17.844 v 0 c -2.66,-1.848 -6.15,-3.688 -10.25,-5.539 -4.3,-1.844 -9.43,-2.872 -15.58,-2.872 -9.85,0 -16.81,2.672 -21.12,8.204 -4.31,5.332 -6.57,13.336 -6.57,24 v 0" /><path
         id="path56"
         style="fill:#ffffff;fill-opacity:1;fill-rule:nonzero;stroke:none"
         d="m 527.258,551.055 h 38.957 v 0 c 7.18,0 13.531,1.027 19.07,3.078 5.531,1.844 10.043,4.715 13.945,8.203 3.895,3.484 6.762,7.793 8.813,12.715 1.84,4.715 2.871,10.054 2.871,15.789 v 0 c 0,5.547 -0.82,10.265 -2.258,14.57 -1.633,4.102 -3.683,7.59 -6.144,10.461 -2.668,2.664 -5.539,4.922 -8.614,6.57 -3.281,1.629 -6.558,2.657 -9.839,3.282 v 0.402 c 3.07,1.023 5.945,2.254 8.808,4.102 2.664,1.636 5.125,3.691 7.387,6.355 2.258,2.668 3.898,5.742 5.328,9.441 1.441,3.489 2.055,7.793 2.055,12.512 0,11.488 -3.282,20.305 -9.844,26.461 -6.766,6.152 -17.227,9.227 -31.578,9.227 H 527.258 V 551.055" /><path
         id="path58"
         style="fill:#ffffff;fill-opacity:1;fill-rule:nonzero;stroke:none"
         d="m 659.738,597.605 h 60.082 v 7.192 c 0,9.226 -1.019,17.012 -2.867,23.789 -1.851,6.766 -4.515,12.312 -7.996,16.621 -3.488,4.305 -7.789,7.383 -12.512,9.426 -4.922,2.055 -10.254,3.078 -15.996,3.078 -6.558,0 -12.504,-1.231 -17.633,-3.895 -5.332,-2.664 -9.847,-6.558 -13.328,-11.289 -3.488,-4.91 -6.363,-10.664 -8.203,-17.429 -1.847,-6.766 -2.867,-14.153 -2.867,-22.149 0,-7.597 1.02,-14.773 2.867,-21.34 1.84,-6.558 4.508,-12.089 8.403,-16.812 3.695,-4.719 8.414,-8.41 14.152,-11.074 5.742,-2.864 12.508,-4.094 20.101,-4.094 6.563,0 12.504,0.617 17.633,2.043 5.121,1.426 9.227,2.871 12.715,4.305 v 0 l -1.031,17.839 v 0 c -2.668,-1.843 -6.149,-3.687 -10.25,-5.535 -4.313,-1.843 -9.434,-2.871 -15.586,-2.871 -9.844,0 -16.813,2.664 -21.121,8.203 -4.305,5.332 -6.563,13.328 -6.563,23.992 v 0" /><path
         id="path60"
         style="fill:#ffffff;fill-opacity:1;fill-rule:nonzero;stroke:none"
         d="m 751.039,551.055 h 21.336 v 56.613 c 0,5.332 0.609,9.844 1.84,13.738 1.23,3.899 2.875,6.973 4.926,9.434 2.05,2.258 4.507,4.109 7.179,5.344 2.66,1.011 5.332,1.629 8.403,1.629 1.23,0 2.457,0 3.484,-0.196 1.023,-0.215 2.254,-0.422 3.281,-0.625 V 657.5 c -0.402,0 -0.82,0 -1.027,0.211 -0.203,0 -0.613,0 -1.023,0 -3.895,0 -7.383,-0.406 -10.458,-1.438 -3.07,-1.019 -5.539,-2.457 -7.789,-4.3 -2.261,-1.844 -4.312,-3.899 -5.949,-6.16 -1.644,-2.25 -3.078,-4.719 -4.097,-7.383 h -0.418 v 0 c 0,0.82 0,2.05 0,3.699 -0.2,1.633 -0.2,3.476 -0.411,5.332 -0.203,1.848 -0.203,3.477 -0.203,5.129 -0.199,1.629 -0.199,2.871 -0.199,3.683 H 750.23 v 0 c 0.2,-3.07 0.407,-6.351 0.61,-9.64 0.199,-3.488 0.199,-6.977 0.199,-10.449 v -85.129" /><path
         id="path62"
         style="fill:#ffffff;fill-opacity:1;fill-rule:nonzero;stroke:none"
         d="m 822.809,551.055 h 21.328 v 62.351 c 0,8.203 1.64,14.77 5.117,19.485 3.281,4.726 8.203,6.972 14.98,6.972 5.528,0 9.422,-1.843 12.09,-5.527 2.461,-3.699 3.699,-9.648 3.699,-17.84 v -65.441 h 21.321 v 70.351 c 0,11.074 -2.461,19.895 -7.375,26.465 -4.93,6.559 -12.723,9.84 -23.387,9.84 -6.152,0 -11.484,-1.438 -16.203,-4.508 -4.707,-3.074 -8.406,-7.39 -11.074,-12.922 h -0.41 v 0 c 0,0.617 0,1.848 0,3.282 -0.204,1.425 -0.204,3.07 -0.411,4.707 -0.195,1.652 -0.195,3.285 -0.195,4.718 -0.203,1.442 -0.203,2.672 -0.203,3.285 h -20.098 v 0 c 0.196,-3.07 0.399,-6.351 0.614,-9.64 0.207,-3.488 0.207,-6.977 0.207,-10.449 v -85.129" /><path
         id="path64"
         style="fill:#ffffff;fill-opacity:1;fill-rule:nonzero;stroke:none"
         d="m 527.258,326.543 h 22.14 v 64.402 h 43.887 v 18.254 h -43.887 v 42.258 h 45.93 v 18.262 h -68.07 V 326.543" /><path
         id="path66"
         style="fill:#ffffff;fill-opacity:1;fill-rule:nonzero;stroke:none"
         d="m 618.234,326.543 h 21.329 v 56.609 c 0,5.332 0.613,9.848 1.839,13.743 1.231,3.898 2.875,6.984 4.926,9.445 2.051,2.246 4.512,4.098 7.18,5.332 2.66,1.016 5.332,1.629 8.402,1.629 1.231,0 2.461,0 3.485,-0.196 1.027,-0.207 2.253,-0.417 3.281,-0.625 v 20.508 c -0.403,0 -0.821,0 -1.028,0.215 -0.195,0 -0.613,0 -1.023,0 -3.891,0 -7.383,-0.41 -10.457,-1.445 -3.07,-1.016 -5.539,-2.449 -7.789,-4.297 -2.254,-1.848 -4.305,-3.898 -5.945,-6.152 -1.649,-2.254 -3.082,-4.727 -4.102,-7.391 h -0.418 v 0 c 0,0.828 0,2.051 0,3.699 -0.199,1.641 -0.199,3.477 -0.402,5.332 -0.211,1.848 -0.211,3.477 -0.211,5.125 -0.199,1.633 -0.199,2.871 -0.199,3.684 h -19.684 v 0 c 0.199,-3.067 0.406,-6.348 0.613,-9.629 0.203,-3.496 0.203,-6.984 0.203,-10.457 v -85.129" /><path
         id="path68"
         style="fill:#ffffff;fill-opacity:1;fill-rule:nonzero;stroke:none"
         d="m 688.762,326.543 h 21.316 V 431.758 H 688.762 V 326.543" /><path
         id="path70"
         style="fill:#ffffff;fill-opacity:1;fill-rule:nonzero;stroke:none"
         d="m 688.145,452.891 h 22.554 v 22.761 h -22.554 v -22.761" /><path
         id="path72"
         style="fill:#ffffff;fill-opacity:1;fill-rule:nonzero;stroke:none"
         d="m 745.27,326.543 h 20.085 v 0 c 0,0.41 0,1.23 0.211,2.656 0.2,1.446 0.2,2.883 0.411,4.727 0,1.64 0,3.281 0.207,4.922 0,1.64 0,2.882 0,3.691 h 0.402 v 0 c 1.031,-2.258 2.473,-4.309 4.102,-6.355 1.441,-2.051 3.281,-3.899 5.542,-5.539 2.25,-1.641 4.719,-2.872 7.793,-3.895 3.071,-1.223 6.559,-1.633 10.454,-1.633 5.949,0 11.281,1.231 15.793,3.887 4.5,2.461 8.406,6.152 11.484,10.871 3.074,4.715 5.332,10.262 6.973,17.027 1.433,6.567 2.253,13.938 2.253,22.153 v 0 c 0,17.84 -3.281,31.179 -9.843,40.41 -6.563,9.226 -15.379,13.738 -26.453,13.738 -6.762,0 -12.305,-1.445 -16.403,-4.512 -4.312,-3.078 -7.797,-6.972 -10.465,-11.687 h -0.402 v 63.379 H 746.086 V 345.207 c 0,-3.477 0,-6.977 -0.203,-10.051 -0.207,-3.074 -0.418,-5.957 -0.613,-8.613 v 0" /><path
         id="path74"
         style="fill:#ffffff;fill-opacity:1;fill-rule:nonzero;stroke:none"
         d="m 872.242,337.82 c 3.895,-4.304 8.613,-7.586 14.16,-9.636 5.321,-2.039 11.063,-3.067 17.215,-3.067 6.153,0 11.895,1.028 17.434,3.067 5.332,2.05 10.047,5.332 13.945,9.636 3.895,4.309 7.176,9.856 9.434,16.614 2.246,6.777 3.476,15.175 3.476,24.824 v 0 c 0,9.433 -1.23,17.637 -3.476,24.414 -2.258,6.766 -5.539,12.512 -9.434,16.808 -3.898,4.317 -8.613,7.594 -13.945,9.649 -5.539,2.051 -11.281,3.074 -17.434,3.074 -6.152,0 -11.894,-1.023 -17.215,-3.074 -5.547,-2.055 -10.265,-5.332 -14.16,-9.649 -3.887,-4.296 -7.168,-10.042 -9.433,-16.808 -2.246,-6.777 -3.477,-14.981 -3.477,-24.414 0,-9.649 1.231,-18.047 3.477,-24.824 2.265,-6.758 5.546,-12.305 9.433,-16.614 v 0" /><path
         id="path76"
         style="fill:#ffffff;fill-opacity:1;fill-rule:nonzero;stroke:none"
         d="m 1034.9,326.543 h 20.1 v 0 c -0.2,3.078 -0.41,6.355 -0.62,9.852 -0.2,3.285 -0.2,6.757 -0.2,10.246 v 85.117 h -21.33 v -61.731 c 0,-8.203 -1.64,-14.761 -4.72,-19.683 -3.07,-4.934 -8.2,-7.383 -14.96,-7.383 -5.55,0 -9.44,1.836 -12.11,5.523 -2.658,3.704 -4.103,9.653 -4.103,17.856 v 65.418 h -21.316 v -70.34 c 0,-11.074 2.461,-19.895 7.382,-26.457 4.922,-6.57 12.704,-9.844 23.377,-9.844 7.17,0 12.91,1.633 17.23,5.117 4.1,3.282 7.37,7.383 10.04,12.305 h 0.41 l 0.82,-15.996 v 0" /><path
         id="path78"
         style="fill:#ffffff;fill-opacity:1;fill-rule:nonzero;stroke:none"
         d="m 1091.1,326.543 h 21.33 v 56.609 c 0,5.332 0.61,9.848 1.84,13.743 1.23,3.898 2.87,6.984 4.93,9.445 2.05,2.246 4.51,4.098 7.17,5.332 2.67,1.016 5.33,1.629 8.41,1.629 1.22,0 2.45,0 3.49,-0.196 1.01,-0.207 2.25,-0.417 3.28,-0.625 v 20.508 c -0.41,0 -0.82,0 -1.03,0.215 -0.2,0 -0.62,0 -1.02,0 -3.9,0 -7.39,-0.41 -10.46,-1.445 -3.08,-1.016 -5.55,-2.449 -7.79,-4.297 -2.26,-1.848 -4.31,-3.898 -5.95,-6.152 -1.64,-2.254 -3.08,-4.727 -4.1,-7.391 h -0.41 v 0 c 0,0.828 0,2.051 0,3.699 -0.21,1.641 -0.21,3.477 -0.41,5.332 -0.21,1.848 -0.21,3.477 -0.21,5.125 -0.21,1.633 -0.21,2.871 -0.21,3.684 h -19.67 v 0 c 0.19,-3.067 0.4,-6.348 0.61,-9.629 0.2,-3.496 0.2,-6.984 0.2,-10.457 v -85.129" /><path
         id="path80"
         style="fill:#ffffff;fill-opacity:1;fill-rule:nonzero;stroke:none"
         d="m 1160.74,307.473 -1.23,-19.895 v 0 c 3.48,-1.426 8.4,-2.871 14.56,-4.308 6.15,-1.434 12.51,-2.254 18.86,-2.254 15.59,0 27.27,4.304 35.06,12.714 7.81,8.411 11.69,20.52 11.69,36.106 v 84.082 c 0,3.086 0.21,5.945 0.41,9.031 0.21,3.074 0.21,5.946 0.41,8.809 h -19.68 v 0 c 0,-0.613 0,-1.836 0,-3.274 -0.2,-1.441 -0.2,-3.074 -0.41,-4.722 -0.21,-1.633 -0.21,-3.071 -0.21,-4.504 -0.2,-1.445 -0.2,-2.676 -0.2,-3.289 h -0.62 v 0 c -2.67,4.722 -6.14,8.828 -10.45,12.312 -4.3,3.282 -9.64,4.922 -16.2,4.922 -6.37,0 -12.1,-1.23 -16.82,-3.894 -4.72,-2.668 -8.82,-6.164 -11.89,-10.871 -3.08,-4.715 -5.53,-10.469 -6.97,-17.032 -1.64,-6.765 -2.46,-14.148 -2.46,-22.351 0,-9.844 1.02,-18.059 3.28,-24.817 2.05,-6.765 4.71,-12.312 8.2,-16.418 3.48,-4.304 7.38,-7.175 11.69,-9.019 4.31,-1.848 8.82,-2.863 13.33,-2.863 7.17,0 12.92,1.628 17.21,5.117 4.32,3.281 7.8,7.39 10.47,12.519 h 0.41 v -13.125 c 0,-4.304 -0.41,-8.613 -1.23,-12.511 -1.03,-3.907 -2.47,-7.184 -4.52,-10.047 -2.24,-2.879 -5.13,-5.137 -8.8,-6.985 -3.71,-1.629 -8.42,-2.461 -13.95,-2.461 -5.74,0 -11.28,1.028 -16.82,2.883 -5.54,2.051 -9.84,4.094 -13.12,6.145 v 0" /><path
         id="path82"
         style="fill:#ffffff;fill-opacity:1;fill-rule:nonzero;stroke:none"
         d="m 910.211,108.855 c 3.25,-1.187 7,-2.378 11.445,-3.242 4.266,-1.011 9.051,-1.519 14.012,-1.519 12.648,0 22.383,3.75 29.219,11.094 6.836,7.519 10.254,17.605 10.254,30.425 v 0 c 0,5.813 -0.848,11.117 -2.559,15.551 -1.883,4.617 -4.277,8.379 -7.176,11.465 -2.91,3.062 -6.496,5.293 -10.429,6.836 -4.102,1.519 -8.379,2.39 -12.813,2.39 -2.734,0 -5.305,-0.175 -7.512,-0.515 -2.402,-0.176 -4.453,-0.688 -5.984,-1.195 v 30.082 h 40.84 v 14.531 h -57.59 v -60.852 c 2.91,0.852 5.977,1.699 9.055,2.559 3.074,0.859 6.668,1.191 10.593,1.191 8.204,0 14.356,-2.218 18.625,-6.492 4.102,-4.269 6.153,-10.09 6.153,-17.094 0,-7.351 -2.051,-13.328 -6.321,-17.945 -4.265,-4.785 -10.078,-7.18 -17.429,-7.18 -4.278,0 -8.203,0.684 -11.797,1.875 -3.586,1.2 -6.828,2.571 -9.563,4.114 v 0 l -1.023,-16.079 v 0" /><path
         id="path84"
         style="fill:#ffffff;fill-opacity:1;fill-rule:nonzero;stroke:none"
         d="m 1001.25,121.516 c 2.91,-5.481 6.68,-9.746 11.29,-12.817 4.6,-3.086 10.07,-4.605 16.74,-4.605 6.67,0 12.31,1.519 16.92,4.761 4.62,3.086 8.37,7.356 11.28,12.825 2.91,5.476 4.96,11.965 6.15,19.316 1.19,7.356 1.88,15.383 1.88,24.102 v 0 c 0,8.718 -0.69,16.757 -1.88,24.277 -1.19,7.344 -3.24,13.848 -6.15,19.309 -2.91,5.464 -6.66,9.746 -11.28,12.996 -4.61,3.078 -10.25,4.609 -16.92,4.609 -6.67,0 -12.29,-1.531 -16.91,-4.609 -4.61,-3.25 -8.21,-7.532 -11.12,-12.996 -2.895,-5.461 -4.945,-11.965 -6.137,-19.309 -1.203,-7.52 -1.875,-15.559 -1.875,-24.277 0,-8.719 0.672,-16.746 1.875,-24.102 1.192,-7.519 3.242,-14.016 6.137,-19.48 v 0" /><path
         id="path86"
         style="fill:#ffffff;fill-opacity:1;fill-rule:nonzero;stroke:none"
         d="m 1093.87,121.516 c 2.91,-5.481 6.67,-9.746 11.28,-12.817 4.62,-3.086 10.09,-4.605 16.76,-4.605 6.66,0 12.29,1.519 16.9,4.761 4.62,3.086 8.39,7.356 11.29,12.825 2.91,5.476 4.96,11.965 6.15,19.316 1.2,7.356 1.88,15.383 1.88,24.102 v 0 c 0,8.718 -0.68,16.757 -1.88,24.277 -1.19,7.344 -3.24,13.848 -6.15,19.309 -2.9,5.464 -6.67,9.746 -11.29,12.996 -4.61,3.078 -10.24,4.609 -16.9,4.609 -6.67,0 -12.3,-1.531 -16.93,-4.609 -4.6,-3.25 -8.2,-7.532 -11.11,-12.996 -2.89,-5.461 -4.95,-11.965 -6.14,-19.309 -1.2,-7.52 -1.87,-15.559 -1.87,-24.277 0,-8.719 0.67,-16.746 1.87,-24.102 1.19,-7.519 3.25,-14.016 6.14,-19.48 v 0" /><path
         id="path88"
         style="fill:#ffffff;fill-opacity:1;fill-rule:nonzero;stroke:none"
         d="m 1267.35,105.449 h 17.78 v 53.66 c 0,6.496 1.37,11.457 3.94,15.051 2.56,3.586 6.48,5.305 11.43,5.305 8.21,0 12.32,-5.469 12.32,-16.242 v -57.774 h 17.77 v 53.66 c 0,6.496 1.37,11.457 3.93,15.051 2.55,3.586 6.49,5.305 11.45,5.305 8.19,0 12.3,-5.469 12.3,-16.242 v -57.774 h 17.77 v 57.434 c 0,10.254 -2.05,18.101 -6.15,23.406 -4.27,5.305 -10.6,8.035 -19.14,8.035 -5.64,0 -10.26,-1.363 -13.84,-4.097 -3.59,-2.903 -6.32,-6.157 -8.55,-9.747 -0.86,1.708 -1.87,3.426 -3.07,5.125 -1.19,1.543 -2.74,3.086 -4.43,4.454 -1.72,1.191 -3.77,2.214 -5.99,3.078 -2.23,0.859 -4.96,1.187 -7.86,1.187 -5.47,0 -9.92,-1.363 -13.51,-4.097 -3.58,-2.903 -6.48,-6.321 -8.37,-10.606 h -0.34 v 0 c 0,0.524 0,1.543 0,2.906 -0.18,1.203 -0.18,2.571 -0.18,3.938 -0.16,1.367 -0.16,2.734 -0.16,3.926 -0.18,1.203 -0.18,2.238 -0.18,2.746 h -17.59 v 0 c 0.16,-2.407 0.34,-4.961 0.5,-7.707 0.17,-2.723 0.17,-5.633 0.17,-8.875 v -71.106" /><path
         id="path90"
         style="fill:#007f46;fill-opacity:1;fill-rule:nonzero;stroke:none"
         d="m 680.367,1204.03 c 0.203,9.64 2.051,17.23 5.535,22.57 3.493,5.12 8.411,7.79 14.563,7.79 12.715,0 19.07,-10.05 19.07,-30.36 h -39.168 v 0" /><path
         id="path92"
         style="fill:#007f46;fill-opacity:1;fill-rule:nonzero;stroke:none"
         d="m 901.227,1204.03 c 0.203,9.64 2.05,17.23 5.535,22.57 3.488,5.12 8.41,7.79 14.562,7.79 12.715,0 19.071,-10.05 19.071,-30.36 h -39.168 v 0" /><path
         id="path94"
         style="fill:#007f46;fill-opacity:1;fill-rule:nonzero;stroke:none"
         d="m 1106.4,1204.03 c 0.22,9.64 2.05,17.23 5.54,22.57 3.49,5.12 8.41,7.79 14.56,7.79 12.71,0 19.07,-10.05 19.07,-30.36 h -39.17 v 0" /><path
         id="path96"
         style="fill:#007f46;fill-opacity:1;fill-rule:nonzero;stroke:none"
         d="m 670.902,969.902 v -9.437 c 0,-8.41 -1.843,-15.176 -5.539,-20.305 -3.894,-5.332 -9.425,-7.996 -17.019,-7.996 -5.535,0 -9.633,1.637 -12.508,4.715 -2.871,3.07 -4.309,7.379 -4.309,12.512 0,6.972 2.668,12.093 8.203,15.586 5.543,3.492 13.543,5.125 23.997,5.125 1.23,0 2.461,0 3.894,0 1.438,0 2.668,0 3.281,-0.2 v 0" /><path
         id="path98"
         style="fill:#007f46;fill-opacity:1;fill-rule:nonzero;stroke:none"
         d="m 988.207,969.902 v -9.437 c 0,-8.41 -1.836,-15.176 -5.535,-20.305 -3.899,-5.332 -9.426,-7.996 -17.012,-7.996 -5.547,0 -9.64,1.637 -12.512,4.715 -2.878,3.07 -4.316,7.379 -4.316,12.512 0,6.972 2.668,12.093 8.203,15.586 5.539,3.492 13.547,5.125 23.996,5.125 1.239,0 2.461,0 3.895,0 1.445,0 2.668,0 3.281,-0.2 v 0" /><path
         id="path100"
         style="fill:#007f46;fill-opacity:1;fill-rule:nonzero;stroke:none"
         d="m 1286.36,979.543 c 0.21,9.633 2.06,17.227 5.54,22.567 3.49,5.12 8.41,7.79 14.56,7.79 12.72,0 19.07,-10.056 19.07,-30.357 h -39.17 v 0" /><path
         id="path102"
         style="fill:#007f46;fill-opacity:1;fill-rule:nonzero;stroke:none"
         d="m 548.988,633.301 v 43.902 h 13.328 v 0 c 7.997,0 13.938,-1.855 17.836,-5.746 3.907,-3.902 5.746,-9.023 5.746,-15.184 v 0 c 0,-6.761 -2.05,-12.308 -6.152,-16.617 -4.301,-4.304 -10.453,-6.355 -18.66,-6.355 h -12.098 v 0" /><path
         id="path104"
         style="fill:#007f46;fill-opacity:1;fill-rule:nonzero;stroke:none"
         d="m 548.988,568.484 v 47.793 h 15.582 v 0 c 4.313,0 7.793,-0.613 10.875,-1.843 3.071,-1.243 5.532,-2.871 7.582,-5.125 1.84,-2.258 3.282,-4.719 4.313,-7.59 1.019,-2.871 1.426,-5.949 1.426,-9.446 v 0 c 0,-6.765 -2.043,-12.507 -6.149,-17.019 -4.101,-4.512 -10.254,-6.77 -18.66,-6.77 h -14.969 v 0" /><path
         id="path106"
         style="fill:#007f46;fill-opacity:1;fill-rule:nonzero;stroke:none"
         d="m 659.738,612.18 c 0.207,9.629 2.051,17.222 5.539,22.554 3.489,5.129 8.407,7.793 14.559,7.793 12.719,0 19.07,-10.047 19.07,-30.347 h -39.168 v 0" /><path
         id="path108"
         style="fill:#007f46;fill-opacity:1;fill-rule:nonzero;stroke:none"
         d="m 772.535,351.77 c -3.476,6.765 -5.121,16.003 -5.121,27.488 0,11.687 1.645,20.918 5.121,27.683 3.485,6.782 8.824,10.063 16.207,10.063 7.582,0 12.914,-3.281 16.196,-9.649 3.082,-6.562 4.714,-15.792 4.714,-27.687 v 0 c 0,-12.918 -1.433,-22.355 -4.511,-28.711 -3.071,-6.367 -8.614,-9.648 -16.2,-9.648 -7.582,0 -13.125,3.488 -16.406,10.461 v 0" /><path
         id="path110"
         style="fill:#007f46;fill-opacity:1;fill-rule:nonzero;stroke:none"
         d="m 886.402,351.973 c -1.855,3.496 -3.086,7.39 -3.703,12.109 -0.82,4.719 -1.23,9.641 -1.23,15.176 0,5.539 0.41,10.461 1.23,15.183 0.617,4.719 1.848,8.618 3.703,12.09 1.836,3.293 4.09,5.949 6.961,7.805 2.668,1.848 6.153,2.859 10.254,2.859 4.102,0 7.59,-1.011 10.461,-2.859 2.676,-1.856 4.922,-4.512 6.766,-7.805 1.847,-3.472 3.078,-7.371 3.898,-12.09 0.613,-4.722 1.024,-9.644 1.024,-15.183 v 0 c 0,-5.535 -0.411,-10.457 -1.024,-15.176 -0.82,-4.719 -2.051,-8.613 -3.898,-12.109 -1.844,-3.489 -4.09,-6.153 -6.766,-7.996 -2.871,-1.848 -6.359,-2.872 -10.461,-2.872 -4.101,0 -7.586,1.024 -10.254,2.872 -2.871,1.843 -5.125,4.507 -6.961,7.996 v 0" /><path
         id="path112"
         style="fill:#007f46;fill-opacity:1;fill-rule:nonzero;stroke:none"
         d="m 1181.66,351.355 c -3.49,5.958 -5.34,15.395 -5.34,28.313 0,12.102 1.64,21.125 4.93,27.488 3.07,6.145 8.39,9.231 15.79,9.426 6.97,0 12.3,-3.074 16.2,-9.227 3.68,-6.144 5.53,-15.375 5.53,-27.48 v 0 c 0,-12.727 -1.85,-22.16 -5.34,-28.305 -3.47,-6.363 -9.23,-9.441 -17.22,-9.441 -6.15,0 -11.07,3.078 -14.55,9.226 v 0" /><path
         id="path114"
         style="fill:#007f46;fill-opacity:1;fill-rule:nonzero;stroke:none"
         d="m 1015.27,130.566 c -2.56,8.039 -3.93,19.661 -3.93,34.532 0,14.875 1.37,26.496 3.93,34.699 2.56,8.203 7.34,12.305 14.01,12.305 6.85,0 11.62,-4.102 14.18,-12.129 2.57,-8.215 3.94,-19.828 3.94,-34.875 v 0 c 0,-14.871 -1.37,-26.493 -3.94,-34.532 -2.72,-8.203 -7.51,-12.304 -14.18,-12.304 -6.67,0 -11.45,4.101 -14.01,12.304 v 0" /><path
         id="path116"
         style="fill:#007f46;fill-opacity:1;fill-rule:nonzero;stroke:none"
         d="m 1107.89,130.566 c -2.56,8.039 -3.93,19.661 -3.93,34.532 0,14.875 1.37,26.496 3.93,34.699 2.56,8.203 7.35,12.305 14.02,12.305 6.84,0 11.61,-4.102 14.17,-12.129 2.58,-8.215 3.94,-19.828 3.94,-34.875 v 0 c 0,-14.871 -1.36,-26.493 -3.94,-34.532 -2.72,-8.203 -7.51,-12.304 -14.17,-12.304 -6.67,0 -11.46,4.101 -14.02,12.304 v 0" /></g></g></svg>