<?xml version="1.0" encoding="UTF-8" standalone="no"?>
<svg
   xmlns:dc="http://purl.org/dc/elements/1.1/"
   xmlns:cc="http://creativecommons.org/ns#"
   xmlns:rdf="http://www.w3.org/1999/02/22-rdf-syntax-ns#"
   xmlns:svg="http://www.w3.org/2000/svg"
   xmlns="http://www.w3.org/2000/svg"
   viewBox="0 0 212.60001 150.52499"
   height="150.52499"
   width="212.60001"
   xml:space="preserve"
   version="1.1"
   id="svg2"><metadata
     id="metadata8"><rdf:RDF><cc:Work
         rdf:about=""><dc:format>image/svg+xml</dc:format><dc:type
           rdf:resource="http://purl.org/dc/dcmitype/StillImage" /></cc:Work></rdf:RDF></metadata><defs
     id="defs6" /><g
     transform="matrix(1.25,0,0,-1.25,0,150.525)"
     id="g10"><g
       transform="scale(0.1,0.1)"
       id="g12"><path
         id="path14"
         style="fill:#1a67bb;fill-opacity:1;fill-rule:nonzero;stroke:none"
         d="M 0,821.813 0,0 l 1700.79,0 0,821.813 -13.55,0 0,-757.5552 c 0,-27.9375 -22.88,-50.75 -51.12,-50.75 l -1571.6864,0 0,0 c -28.0117,0 -50.8945,22.8125 -50.8945,50.75 l 0,757.5552 -13.5391,0 0,0" /><path
         id="path16"
         style="fill:#1a67bb;fill-opacity:1;fill-rule:nonzero;stroke:none"
         d="m 1670.2,814.18 0,-749.9222 c 0,-18.6211 -15.18,-33.7617 -34.08,-33.7617 l -1571.6864,0 0,0 c -18.6758,0 -33.8516,15.1406 -33.8516,33.7617 l 0,749.9222 1639.618,0 0,0" /><path
         id="path18"
         style="fill:#ffffff;fill-opacity:1;fill-rule:nonzero;stroke:none"
         d="m 393.852,546.895 c 2.57,5.363 -0.93,11.41 -6.77,11.878 l 0,0 -163.426,11.407 0,0 c -7.468,0.699 -11.668,-8.379 -6.539,-13.735 l 0,0 46.93,-48.191 -158.754,-84.289 30.816,-52.852 152.45,94.766 18.445,-64.492 0,0 c 2.101,-7.215 11.906,-8.153 15.176,-1.399 l 0,0 71.672,146.907 0,0" /><path
         id="path20"
         style="fill:#ffffff;fill-opacity:1;fill-rule:nonzero;stroke:none"
         d="m 485.996,576.703 20.484,0 0,114.07 0.415,0 50.609,-114.07 26.851,0 0,142.692 -20.492,0 0,-114.891 -0.418,0 -50.609,114.891 -26.84,0 0,-142.692" /><path
         id="path22"
         style="fill:#ffffff;fill-opacity:1;fill-rule:nonzero;stroke:none"
         d="m 619.902,576.703 21.301,0 0,104.867 -21.301,0 0,-104.867" /><path
         id="path24"
         style="fill:#ffffff;fill-opacity:1;fill-rule:nonzero;stroke:none"
         d="m 619.281,702.633 22.539,0 0,22.695 -22.539,0 0,-22.695" /><path
         id="path26"
         style="fill:#ffffff;fill-opacity:1;fill-rule:nonzero;stroke:none"
         d="m 692.336,623.105 60.039,0 0,7.153 c 0,9.199 -1.02,16.969 -2.863,23.719 -1.852,6.746 -4.516,12.269 -7.992,16.558 -3.489,4.301 -7.786,7.36 -12.5,9.406 -4.922,2.047 -10.25,3.067 -15.989,3.067 -6.551,0 -12.492,-1.231 -17.617,-3.887 -5.332,-2.656 -9.844,-6.543 -13.324,-11.246 -3.481,-4.902 -6.36,-10.629 -8.199,-17.379 -1.84,-6.734 -2.86,-14.098 -2.86,-22.074 0,-7.567 1.02,-14.723 2.86,-21.266 1.839,-6.543 4.507,-12.054 8.406,-16.754 3.687,-4.707 8.406,-8.39 14.141,-11.05 5.734,-2.848 12.5,-4.075 20.082,-4.075 6.558,0 12.5,0.618 17.621,2.039 5.121,1.422 9.218,2.856 12.707,4.289 l 0,0 -1.028,17.786 0,0 c -2.668,-1.836 -6.14,-3.676 -10.242,-5.524 -4.308,-1.836 -9.43,-2.855 -15.578,-2.855 -9.84,0 -16.801,2.66 -21.109,8.172 -4.297,5.32 -6.555,13.293 -6.555,23.921 l 0,0" /><path
         id="path28"
         style="fill:#ffffff;fill-opacity:1;fill-rule:nonzero;stroke:none"
         d="m 846.871,576.703 20.281,0 0,0 c -0.203,2.649 -0.398,5.516 -0.613,8.574 -0.195,3.078 -0.195,6.555 -0.195,10.028 l 0,134.722 -21.321,0 0,-63.168 -0.402,0 0,0 c -2.664,4.704 -6.148,8.586 -10.457,11.653 -4.301,3.058 -9.836,4.496 -16.598,4.496 -11.066,0 -19.875,-4.496 -26.429,-13.695 -6.555,-9.2 -9.832,-22.493 -9.832,-40.282 0,-8.176 0.808,-15.531 2.449,-22.074 1.441,-6.746 3.898,-12.269 6.969,-16.973 3.078,-4.707 6.968,-8.379 11.48,-10.828 4.508,-2.652 9.832,-3.879 15.774,-3.879 3.894,0 7.378,0.407 10.453,1.621 2.871,1.032 5.535,2.258 7.781,3.887 2.262,1.641 4.102,3.477 5.539,5.524 1.434,2.046 2.871,4.093 3.891,6.332 l 0.613,0 0,0 c 0,-1.016 0,-2.239 0.211,-3.879 0,-1.633 0,-3.274 0.207,-4.903 0,-1.64 0,-3.074 0.199,-4.507 0,-1.422 0,-2.243 0,-2.649 l 0,0" /><path
         id="path30"
         style="fill:#ffffff;fill-opacity:1;fill-rule:nonzero;stroke:none"
         d="m 918.129,623.105 60.039,0 0,7.153 c 0,9.199 -1.023,16.969 -2.859,23.719 -1.856,6.746 -4.524,12.269 -8,16.558 -3.477,4.301 -7.782,7.36 -12.489,9.406 -4.922,2.047 -10.254,3.067 -15.988,3.067 -6.562,0 -12.5,-1.231 -17.625,-3.887 -5.324,-2.656 -9.844,-6.543 -13.32,-11.246 -3.489,-4.902 -6.36,-10.629 -8.203,-17.379 -1.836,-6.734 -2.864,-14.098 -2.864,-22.074 0,-7.567 1.028,-14.723 2.864,-21.266 1.843,-6.543 4.511,-12.054 8.406,-16.754 3.691,-4.707 8.41,-8.39 14.14,-11.05 5.735,-2.848 12.5,-4.075 20.079,-4.075 6.562,0 12.511,0.618 17.629,2.039 5.117,1.422 9.218,2.856 12.703,4.289 l 0,0 -1.036,17.786 0,0 c -2.656,-1.836 -6.132,-3.676 -10.234,-5.524 -4.305,-1.836 -9.433,-2.855 -15.574,-2.855 -9.844,0 -16.809,2.66 -21.106,8.172 -4.304,5.32 -6.562,13.293 -6.562,23.921 l 0,0" /><path
         id="path32"
         style="fill:#ffffff;fill-opacity:1;fill-rule:nonzero;stroke:none"
         d="m 1009.37,576.703 21.31,0 0,56.422 c 0,5.316 0.62,9.809 1.84,13.695 1.23,3.883 2.87,6.953 4.93,9.407 2.05,2.246 4.51,4.089 7.16,5.316 2.67,1.016 5.34,1.633 8.4,1.633 1.24,0 2.46,0 3.5,-0.203 1.01,-0.203 2.24,-0.414 3.28,-0.618 l 0,20.442 c -0.41,0 -0.83,0 -1.04,0.211 -0.2,0 -0.61,0 -1.02,0 -3.89,0 -7.37,-0.41 -10.45,-1.438 -3.07,-1.011 -5.54,-2.449 -7.78,-4.285 -2.26,-1.84 -4.31,-3.887 -5.95,-6.137 -1.64,-2.246 -3.08,-4.703 -4.09,-7.359 l -0.42,0 0,0 c 0,0.816 0,2.047 0,3.684 -0.2,1.629 -0.2,3.465 -0.4,5.316 -0.22,1.84 -0.22,3.465 -0.22,5.106 -0.19,1.632 -0.19,2.867 -0.19,3.675 l -19.67,0 0,0 c 0.19,-3.058 0.4,-6.332 0.62,-9.601 0.19,-3.477 0.19,-6.957 0.19,-10.426 l 0,-84.84" /><path
         id="path34"
         style="fill:#ffffff;fill-opacity:1;fill-rule:nonzero;stroke:none"
         d="m 1079.61,576.703 20.07,0 0,0 c 0,0.406 0,1.227 0.21,2.649 0.2,1.433 0.2,2.867 0.42,4.707 0,1.636 0,3.265 0.19,4.906 0,1.633 0,2.867 0,3.676 l 0.41,0 0,0 c 1.04,-2.239 2.47,-4.286 4.11,-6.332 1.43,-2.047 3.28,-3.883 5.53,-5.524 2.25,-1.629 4.72,-2.855 7.79,-3.887 3.06,-1.214 6.56,-1.621 10.45,-1.621 5.94,0 11.26,1.227 15.78,3.879 4.5,2.449 8.39,6.121 11.47,10.828 3.07,4.704 5.33,10.227 6.96,16.973 1.44,6.543 2.26,13.898 2.26,22.074 l 0,0 c 0,17.789 -3.27,31.082 -9.83,40.282 -6.56,9.199 -15.38,13.695 -26.44,13.695 -6.77,0 -12.29,-1.438 -16.39,-4.496 -4.3,-3.067 -7.79,-6.949 -10.46,-11.653 l -0.41,0 0,63.168 -21.3,0 0,-134.722 c 0,-3.473 0,-6.95 -0.21,-10.028 -0.2,-3.058 -0.41,-5.925 -0.61,-8.574 l 0,0" /><path
         id="path36"
         style="fill:#ffffff;fill-opacity:1;fill-rule:nonzero;stroke:none"
         d="m 1184.21,576.703 21.31,0 0,104.867 -21.31,0 0,-104.867" /><path
         id="path38"
         style="fill:#ffffff;fill-opacity:1;fill-rule:nonzero;stroke:none"
         d="m 1183.6,702.633 22.53,0 0,22.695 -22.53,0 0,-22.695" /><path
         id="path40"
         style="fill:#ffffff;fill-opacity:1;fill-rule:nonzero;stroke:none"
         d="m 1262.58,591.414 0.41,0 0,0 c 2.67,-4.699 6.15,-8.582 10.46,-11.648 4.09,-3.063 9.63,-4.489 16.39,-4.489 11.06,0 19.88,4.489 26.43,13.688 6.56,9.199 9.84,22.488 9.84,40.277 l 0,0 c 0,8.176 -0.82,15.535 -2.26,22.281 -1.63,6.543 -3.89,12.266 -6.96,16.969 -3.08,4.703 -6.97,8.18 -11.48,10.84 -4.71,2.445 -9.84,3.676 -15.78,3.676 -3.89,0 -7.37,-0.41 -10.45,-1.438 -3.07,-1.011 -5.53,-2.449 -7.79,-4.082 -2.25,-1.636 -4.09,-3.472 -5.53,-5.519 -1.64,-2.047 -3.07,-4.094 -4.1,-6.332 l -0.41,0 0,0 c 0,1.015 0,2.238 0,3.879 -0.2,1.632 -0.2,3.273 -0.2,4.902 -0.21,1.641 -0.21,3.07 -0.41,4.496 -0.21,1.434 -0.21,2.254 -0.21,2.656 l -20.08,0 0,0 c 0.21,-2.656 0.41,-5.511 0.62,-8.582 0.2,-3.066 0.2,-6.543 0.2,-10.015 l 0,-130.414 21.31,0 0,58.855" /><path
         id="path42"
         style="fill:#ffffff;fill-opacity:1;fill-rule:nonzero;stroke:none"
         d="m 1378.87,591.414 0.41,0 0,0 c 2.67,-4.699 6.15,-8.582 10.46,-11.648 4.09,-3.063 9.63,-4.489 16.4,-4.489 11.05,0 19.87,4.489 26.43,13.688 6.56,9.199 9.83,22.488 9.83,40.277 l 0,0 c 0,8.176 -0.82,15.535 -2.26,22.281 -1.63,6.543 -3.89,12.266 -6.96,16.969 -3.08,4.703 -6.97,8.18 -11.48,10.84 -4.71,2.445 -9.83,3.676 -15.78,3.676 -3.88,0 -7.37,-0.41 -10.45,-1.438 -3.06,-1.011 -5.53,-2.449 -7.78,-4.082 -2.26,-1.636 -4.1,-3.472 -5.54,-5.519 -1.63,-2.047 -3.06,-4.094 -4.1,-6.332 l -0.4,0 0,0 c 0,1.015 0,2.238 0,3.879 -0.21,1.632 -0.21,3.273 -0.21,4.902 -0.21,1.641 -0.21,3.07 -0.41,4.496 -0.2,1.434 -0.2,2.254 -0.2,2.656 l -20.08,0 0,0 c 0.2,-2.656 0.4,-5.511 0.61,-8.582 0.2,-3.066 0.2,-6.543 0.2,-10.015 l 0,-130.414 21.31,0 0,58.855" /><path
         id="path44"
         style="fill:#ffffff;fill-opacity:1;fill-rule:nonzero;stroke:none"
         d="m 486.301,332.473 69.051,0 0,18.191 -46.93,0 0,124.5 -22.121,0 0,-142.691" /><path
         id="path46"
         style="fill:#ffffff;fill-opacity:1;fill-rule:nonzero;stroke:none"
         d="m 631.895,332.473 19.269,0 0,0 c -0.211,1.836 -0.617,4.492 -0.828,7.554 -0.203,3.071 -0.414,6.34 -0.414,9.817 l 0,50.09 c 0,6.953 -0.609,12.675 -2.039,17.175 -1.438,4.493 -3.695,8.172 -6.36,11.243 -2.246,2.656 -5.941,5.105 -10.855,7.363 -4.922,2.039 -11.27,3.055 -19.262,3.055 -6.765,0 -12.711,-0.821 -17.828,-2.45 -5.121,-1.64 -9.84,-3.476 -13.73,-5.715 l 0,0 1.636,-18.203 0,0 c 2.664,2.657 6.559,5.11 11.676,7.364 4.926,2.043 10.246,3.054 16.195,3.054 7.575,0 12.907,-2.039 16.184,-6.121 1.645,-2.051 2.867,-4.297 3.488,-6.75 0.614,-2.652 0.821,-5.523 0.821,-8.797 l 0,-4.289 -7.586,0 0,0 c -17.008,0 -30.117,-2.859 -38.938,-8.386 -8.804,-5.711 -13.308,-14.707 -13.308,-26.985 0,-4.898 0.808,-9.195 2.457,-13.074 1.632,-3.887 3.89,-6.953 6.761,-9.617 2.664,-2.656 5.942,-4.492 9.629,-5.715 3.688,-1.426 7.578,-2.039 11.883,-2.039 7.785,0 13.938,1.629 18.652,4.891 4.508,3.078 8.192,6.75 10.856,10.839 l 0.414,0 0,0 c 0,-0.605 0,-1.64 0.195,-3.066 0,-1.426 0,-2.859 0.211,-4.285 0.211,-1.446 0.211,-2.871 0.406,-4.094 0.208,-1.434 0.208,-2.246 0.415,-2.859 l 0,0" /><path
         id="path48"
         style="fill:#ffffff;fill-opacity:1;fill-rule:nonzero;stroke:none"
         d="m 685.313,332.473 21.312,0 0,62.144 c 0,8.176 1.641,14.719 5.125,19.426 3.273,4.707 8.195,6.941 14.961,6.941 5.523,0 9.418,-1.832 12.082,-5.515 2.469,-3.684 3.691,-9.61 3.691,-17.781 l 0,-65.215 21.309,0 0,70.117 c 0,11.031 -2.453,19.832 -7.371,26.375 -4.918,6.531 -12.707,9.805 -23.359,9.805 -6.153,0 -11.481,-1.426 -16.192,-4.493 -4.707,-3.066 -8.402,-7.363 -11.066,-12.879 l -0.41,0 0,0 c 0,0.614 0,1.836 0,3.282 -0.204,1.414 -0.204,3.054 -0.415,4.683 -0.199,1.645 -0.199,3.274 -0.199,4.707 -0.207,1.426 -0.207,2.66 -0.207,3.274 l -20.078,0 0,0 c 0.199,-3.067 0.406,-6.336 0.617,-9.61 0.2,-3.476 0.2,-6.953 0.2,-10.429 l 0,-84.832" /><path
         id="path50"
         style="fill:#ffffff;fill-opacity:1;fill-rule:nonzero;stroke:none"
         d="m 798.852,313.457 -1.231,-19.824 0,0 c 3.492,-1.426 8.399,-2.86 14.551,-4.285 6.152,-1.446 12.5,-2.258 18.848,-2.258 15.582,0 27.257,4.297 35.05,12.676 7.782,8.379 11.68,20.437 11.68,35.976 l 0,83.809 c 0,3.078 0.203,5.937 0.398,9.004 0.215,3.066 0.215,5.929 0.411,8.789 l -19.668,0 0,0 c 0,-0.614 0,-1.848 0,-3.274 -0.196,-1.433 -0.196,-3.062 -0.399,-4.707 -0.215,-1.629 -0.215,-3.062 -0.215,-4.5 -0.195,-1.425 -0.195,-2.644 -0.195,-3.261 l -0.625,0 0,0 c -2.668,4.699 -6.144,8.789 -10.449,12.265 -4.297,3.274 -9.629,4.903 -16.184,4.903 -6.355,0 -12.094,-1.219 -16.808,-3.875 -4.715,-2.668 -8.805,-6.145 -11.887,-10.84 -3.066,-4.7 -5.527,-10.434 -6.957,-16.977 -1.649,-6.746 -2.461,-14.098 -2.461,-22.273 0,-9.817 1.019,-17.996 3.281,-24.735 2.039,-6.75 4.699,-12.277 8.188,-16.359 3.488,-4.285 7.379,-7.156 11.679,-8.992 4.309,-1.848 8.813,-2.864 13.321,-2.864 7.168,0 12.914,1.641 17.215,5.11 4.308,3.269 7.781,7.359 10.445,12.469 l 0.41,0 0,-13.075 c 0,-4.296 -0.41,-8.586 -1.219,-12.461 -1.027,-3.898 -2.472,-7.168 -4.515,-10.019 -2.246,-2.863 -5.121,-5.117 -8.805,-6.953 -3.695,-1.645 -8.402,-2.461 -13.938,-2.461 -5.734,0 -11.273,1.023 -16.804,2.871 -5.531,2.039 -9.84,4.078 -13.117,6.121 l 0,0" /><path
         id="path52"
         style="fill:#ffffff;fill-opacity:1;fill-rule:nonzero;stroke:none"
         d="m 928.539,378.879 60.039,0 0,7.148 c 0,9.2 -1.015,16.969 -2.859,23.719 -1.848,6.746 -4.512,12.266 -7.989,16.555 -3.488,4.304 -7.785,7.359 -12.5,9.414 -4.921,2.039 -10.253,3.055 -15.988,3.055 -6.551,0 -12.5,-1.219 -17.617,-3.875 -5.332,-2.668 -9.844,-6.543 -13.32,-11.25 -3.485,-4.895 -6.356,-10.637 -8.203,-17.383 -1.844,-6.739 -2.86,-14.094 -2.86,-22.071 0,-7.57 1.016,-14.726 2.86,-21.261 1.847,-6.543 4.503,-12.063 8.398,-16.758 3.691,-4.707 8.41,-8.391 14.141,-11.055 5.742,-2.84 12.5,-4.07 20.089,-4.07 6.551,0 12.5,0.613 17.618,2.039 5.125,1.426 9.226,2.852 12.703,4.285 l 0,0 -1.024,17.793 0,0 c -2.668,-1.844 -6.144,-3.68 -10.246,-5.523 -4.304,-1.848 -9.422,-2.864 -15.574,-2.864 -9.836,0 -16.797,2.657 -21.113,8.172 -4.297,5.324 -6.555,13.293 -6.555,23.93 l 0,0" /><path
         id="path54"
         style="fill:#ffffff;fill-opacity:1;fill-rule:nonzero;stroke:none"
         d="m 1019.78,332.473 21.32,0 0,62.144 c 0,8.176 1.64,14.719 5.13,19.426 3.27,4.707 8.19,6.941 14.96,6.941 5.52,0 9.41,-1.832 12.08,-5.515 2.46,-3.684 3.69,-9.61 3.69,-17.781 l 0,-65.215 21.31,0 0,70.117 c 0,11.031 -2.47,19.832 -7.37,26.375 -4.93,6.531 -12.71,9.805 -23.36,9.805 -6.16,0 -11.48,-1.426 -16.2,-4.493 -4.7,-3.066 -8.39,-7.363 -11.06,-12.879 l -0.41,0 0,0 c 0,0.614 0,1.836 0,3.282 -0.21,1.414 -0.21,3.054 -0.41,4.683 -0.21,1.645 -0.21,3.274 -0.21,4.707 -0.2,1.426 -0.2,2.66 -0.2,3.274 l -20.08,0 0,0 c 0.21,-3.067 0.41,-6.336 0.62,-9.61 0.19,-3.476 0.19,-6.953 0.19,-10.429 l 0,-84.832" /><path
         id="path56"
         style="fill:#ffffff;fill-opacity:1;fill-rule:nonzero;stroke:none"
         d="m 1182.48,334.102 0,15.949 c -1.42,-0.617 -2.85,-1.231 -4.51,-1.633 -1.63,-0.625 -3.47,-0.82 -5.73,-0.82 -3.88,0 -6.55,1.222 -8.4,3.468 -1.84,2.254 -2.66,6.141 -2.66,11.864 l 0,58.054 21.3,0 0,16.36 -21.3,0 0,27.804 -21.31,-6.339 0,-21.465 -16.8,0 0,-16.36 16.8,0 0,-62.351 c 0,-10.02 2.26,-17.168 6.96,-21.262 4.71,-4.285 11.27,-6.324 19.87,-6.324 3.08,0 6.16,0.191 8.82,0.808 2.67,0.821 5.13,1.426 6.96,2.247 l 0,0" /><path
         id="path58"
         style="fill:#ffffff;fill-opacity:1;fill-rule:nonzero;stroke:none"
         d="m 1210.75,332.473 21.3,0 0,62.144 c 0,8.176 1.65,14.719 5.12,19.426 3.28,4.707 8.2,6.941 14.96,6.941 5.53,0 9.44,-1.832 12.09,-5.515 2.46,-3.684 3.69,-9.61 3.69,-17.781 l 0,-65.215 21.31,0 0,70.117 c 0,11.031 -2.46,19.832 -7.37,26.375 -4.93,6.531 -12.71,9.805 -23.36,9.805 -6.97,0 -12.51,-1.629 -16.4,-4.7 -4.1,-3.269 -7.38,-6.734 -9.63,-10.632 l -0.41,0 0,62.363 -21.3,0 0,-153.328" /><path
         id="path60"
         style="fill:#ffffff;fill-opacity:1;fill-rule:nonzero;stroke:none"
         d="m 1381.59,332.473 19.27,0 0,0 c -0.21,1.836 -0.62,4.492 -0.82,7.554 -0.21,3.071 -0.43,6.34 -0.43,9.817 l 0,50.09 c 0,6.953 -0.6,12.675 -2.03,17.175 -1.44,4.493 -3.7,8.172 -6.35,11.243 -2.26,2.656 -5.95,5.105 -10.87,7.363 -4.91,2.039 -11.26,3.055 -19.26,3.055 -6.76,0 -12.71,-0.821 -17.82,-2.45 -5.13,-1.64 -9.85,-3.476 -13.73,-5.715 l 0,0 1.63,-18.203 0,0 c 2.66,2.657 6.56,5.11 11.68,7.364 4.92,2.043 10.24,3.054 16.19,3.054 7.58,0 12.91,-2.039 16.18,-6.121 1.65,-2.051 2.87,-4.297 3.48,-6.75 0.63,-2.652 0.83,-5.523 0.83,-8.797 l 0,-4.289 -7.58,0 0,0 c -17.01,0 -30.12,-2.859 -38.94,-8.386 -8.81,-5.711 -13.31,-14.707 -13.31,-26.985 0,-4.898 0.81,-9.195 2.45,-13.074 1.63,-3.887 3.9,-6.953 6.77,-9.617 2.67,-2.656 5.94,-4.492 9.63,-5.715 3.68,-1.426 7.58,-2.039 11.89,-2.039 7.78,0 13.93,1.629 18.65,4.891 4.5,3.078 8.18,6.75 10.85,10.839 l 0.41,0 0,0 c 0,-0.605 0,-1.64 0.2,-3.066 0,-1.426 0,-2.859 0.21,-4.285 0.21,-1.446 0.21,-2.871 0.41,-4.094 0.2,-1.434 0.2,-2.246 0.41,-2.859 l 0,0" /><path
         id="path62"
         style="fill:#ffffff;fill-opacity:1;fill-rule:nonzero;stroke:none"
         d="m 1434.79,332.473 21.31,0 0,153.328 -21.31,0 0,-153.328" /><path
         id="path64"
         style="fill:#ffffff;fill-opacity:1;fill-rule:nonzero;stroke:none"
         d="m 1016.96,115.156 c 3.25,-1.191 7,-2.383 11.44,-3.23 4.27,-1.02 9.05,-1.524 14,-1.524 12.64,0 22.37,3.739 29.21,11.063 6.82,7.488 10.24,17.539 10.24,30.32 l 0,0 c 0,5.793 -0.85,11.074 -2.56,15.5 -1.88,4.602 -4.27,8.36 -7.18,11.426 -2.9,3.059 -6.48,5.273 -10.41,6.816 -4.1,1.524 -8.38,2.375 -12.81,2.375 -2.73,0 -5.29,-0.175 -7.51,-0.507 -2.39,-0.176 -4.44,-0.676 -5.97,-1.196 l 0,29.985 40.8,0 0,14.48 -57.54,0 0,-60.644 c 2.91,0.847 5.97,1.699 9.05,2.55 3.08,0.848 6.66,1.192 10.58,1.192 8.21,0 14.34,-2.207 18.62,-6.477 4.1,-4.25 6.15,-10.051 6.15,-17.031 0,-7.332 -2.05,-13.289 -6.32,-17.891 -4.27,-4.773 -10.07,-7.148 -17.42,-7.148 -4.27,0 -8.19,0.683 -11.79,1.863 -3.58,1.195 -6.82,2.563 -9.56,4.094 l 0,0 -1.02,-16.016 0,0" /><path
         id="path66"
         style="fill:#ffffff;fill-opacity:1;fill-rule:nonzero;stroke:none"
         d="m 1107.95,127.766 c 2.91,-5.45 6.66,-9.707 11.26,-12.778 4.61,-3.062 10.08,-4.586 16.75,-4.586 6.65,0 12.29,1.524 16.9,4.754 4.6,3.067 8.37,7.324 11.27,12.785 2.91,5.45 4.96,11.922 6.15,19.247 1.19,7.324 1.87,15.324 1.87,24.011 l 0,0 c 0,8.696 -0.68,16.703 -1.87,24.211 -1.19,7.317 -3.24,13.801 -6.15,19.238 -2.9,5.461 -6.67,9.715 -11.27,12.95 -4.61,3.066 -10.25,4.597 -16.9,4.597 -6.67,0 -12.29,-1.531 -16.9,-4.597 -4.61,-3.235 -8.2,-7.489 -11.11,-12.95 -2.91,-5.437 -4.96,-11.921 -6.15,-19.238 -1.2,-7.508 -1.87,-15.515 -1.87,-24.211 0,-8.687 0.67,-16.687 1.87,-24.011 1.19,-7.493 3.24,-13.973 6.15,-19.422 l 0,0" /><path
         id="path68"
         style="fill:#ffffff;fill-opacity:1;fill-rule:nonzero;stroke:none"
         d="m 1200.5,127.766 c 2.91,-5.45 6.66,-9.707 11.27,-12.778 4.61,-3.062 10.08,-4.586 16.74,-4.586 6.66,0 12.29,1.524 16.9,4.754 4.61,3.067 8.38,7.324 11.27,12.785 2.91,5.45 4.96,11.922 6.16,19.247 1.19,7.324 1.87,15.324 1.87,24.011 l 0,0 c 0,8.696 -0.68,16.703 -1.87,24.211 -1.2,7.317 -3.25,13.801 -6.16,19.238 -2.89,5.461 -6.66,9.715 -11.27,12.95 -4.61,3.066 -10.24,4.597 -16.9,4.597 -6.66,0 -12.3,-1.531 -16.89,-4.597 -4.62,-3.235 -8.21,-7.489 -11.12,-12.95 -2.9,-5.437 -4.95,-11.921 -6.14,-19.238 -1.2,-7.508 -1.88,-15.515 -1.88,-24.211 0,-8.687 0.68,-16.687 1.88,-24.011 1.19,-7.493 3.24,-13.973 6.14,-19.422 l 0,0" /><path
         id="path70"
         style="fill:#ffffff;fill-opacity:1;fill-rule:nonzero;stroke:none"
         d="m 1373.85,111.758 17.78,0 0,53.484 c 0,6.477 1.36,11.418 3.92,15 2.56,3.578 6.49,5.285 11.44,5.285 8.2,0 12.3,-5.457 12.3,-16.191 l 0,-57.578 17.76,0 0,53.484 c 0,6.477 1.36,11.418 3.92,15 2.57,3.578 6.49,5.285 11.45,5.285 8.19,0 12.29,-5.457 12.29,-16.191 l 0,-57.578 17.77,0 0,57.234 c 0,10.219 -2.07,18.059 -6.17,23.344 -4.26,5.281 -10.57,8.008 -19.12,8.008 -5.63,0 -10.23,-1.367 -13.83,-4.094 -3.58,-2.891 -6.31,-6.133 -8.53,-9.707 -0.86,1.699 -1.88,3.406 -3.08,5.109 -1.19,1.532 -2.73,3.075 -4.43,4.434 -1.72,1.191 -3.76,2.215 -5.98,3.066 -2.22,0.848 -4.96,1.192 -7.86,1.192 -5.47,0 -9.91,-1.367 -13.5,-4.094 -3.58,-2.891 -6.48,-6.301 -8.35,-10.566 l -0.36,0 0,0 c 0,0.515 0,1.535 0,2.902 -0.16,1.191 -0.16,2.559 -0.16,3.926 -0.17,1.355 -0.17,2.722 -0.17,3.914 -0.17,1.191 -0.17,2.207 -0.17,2.726 l -17.59,0 0,0 c 0.16,-2.394 0.34,-4.941 0.52,-7.675 0.15,-2.715 0.15,-5.618 0.15,-8.848 l 0,-70.871" /><path
         id="path72"
         style="fill:#007f46;fill-opacity:1;fill-rule:nonzero;stroke:none"
         d="m 0,821.813 0,382.347 1700.79,0 0,-382.347 -13.55,0 0,317.847 c 0,28.17 -22.88,50.99 -51.12,50.99 l -1571.452,0 0,0 c -28.2461,0 -51.1289,-22.82 -51.1289,-50.99 l 0,-317.847 -13.5391,0 0,0" /><path
         id="path74"
         style="fill:#007f46;fill-opacity:1;fill-rule:nonzero;stroke:none"
         d="m 1670.2,830.938 0,308.722 c 0,18.86 -15.18,33.99 -34.08,33.99 l -1571.452,0 0,0 c -18.9102,0 -34.086,-15.13 -34.086,-33.99 l 0,-308.722 1639.618,0 0,0" /><path
         id="path76"
         style="fill:#1a67bb;fill-opacity:1;fill-rule:nonzero;stroke:none"
         d="m 692.336,637.621 c 0.207,9.606 2.051,17.176 5.535,22.492 3.484,5.106 8.399,7.762 14.551,7.762 12.707,0 19.058,-10.02 19.058,-30.254 l -39.144,0 0,0" /><path
         id="path78"
         style="fill:#1a67bb;fill-opacity:1;fill-rule:nonzero;stroke:none"
         d="m 807.32,601.031 c -3.066,6.332 -4.715,15.938 -4.715,28.617 0,12.067 1.649,21.266 4.922,27.598 3.278,6.344 8.606,9.613 16.188,9.613 7.586,0 12.91,-3.269 16.39,-10.019 3.278,-6.746 4.918,-15.945 4.918,-27.598 l 0,0 c 0,-11.66 -1.64,-20.859 -4.918,-27.597 -3.48,-6.747 -9.015,-10.231 -16.589,-10.231 -7.793,0 -13.125,3.274 -16.196,9.617 l 0,0" /><path
         id="path80"
         style="fill:#1a67bb;fill-opacity:1;fill-rule:nonzero;stroke:none"
         d="m 918.129,637.621 c 0.215,9.606 2.051,17.176 5.539,22.492 3.484,5.106 8.387,7.762 14.551,7.762 12.703,0 19.051,-10.02 19.051,-30.254 l -39.141,0 0,0" /><path
         id="path82"
         style="fill:#1a67bb;fill-opacity:1;fill-rule:nonzero;stroke:none"
         d="m 1106.85,601.84 c -3.47,6.75 -5.12,15.953 -5.12,27.402 0,11.653 1.65,20.852 5.12,27.598 3.5,6.75 8.82,10.019 16.2,10.019 7.57,0 12.91,-3.269 16.18,-9.613 3.09,-6.543 4.72,-15.742 4.72,-27.598 l 0,0 c 0,-12.875 -1.43,-22.285 -4.51,-28.617 -3.07,-6.343 -8.6,-9.617 -16.19,-9.617 -7.58,0 -13.12,3.484 -16.4,10.426 l 0,0" /><path
         id="path84"
         style="fill:#1a67bb;fill-opacity:1;fill-rule:nonzero;stroke:none"
         d="m 1267.71,601.438 c -3.49,6.746 -5.13,15.945 -5.13,27.593 0,11.653 1.64,20.852 5.13,27.602 3.27,6.75 8.81,10.226 16.39,10.226 7.79,0 13.12,-3.269 16.19,-9.613 3.07,-6.332 4.51,-15.945 4.51,-28.617 l 0,0 c 0,-12.066 -1.64,-21.266 -4.72,-27.598 -3.28,-6.343 -8.61,-9.617 -16.18,-9.617 -7.59,0 -12.92,3.274 -16.19,10.024 l 0,0" /><path
         id="path86"
         style="fill:#1a67bb;fill-opacity:1;fill-rule:nonzero;stroke:none"
         d="m 1384,601.438 c -3.48,6.746 -5.13,15.945 -5.13,27.593 0,11.653 1.65,20.852 5.13,27.602 3.27,6.75 8.81,10.226 16.39,10.226 7.79,0 13.12,-3.269 16.19,-9.613 3.07,-6.332 4.51,-15.945 4.51,-28.617 l 0,0 c 0,-12.066 -1.63,-21.266 -4.72,-27.598 -3.28,-6.343 -8.6,-9.617 -16.18,-9.617 -7.59,0 -12.92,3.274 -16.19,10.024 l 0,0" /><path
         id="path88"
         style="fill:#1a67bb;fill-opacity:1;fill-rule:nonzero;stroke:none"
         d="m 629.848,383.777 0,-9.402 c 0,-8.379 -1.844,-15.129 -5.535,-20.234 -3.891,-5.321 -9.418,-7.969 -17.008,-7.969 -5.535,0 -9.629,1.621 -12.5,4.695 -2.871,3.071 -4.305,7.356 -4.305,12.473 0,6.941 2.66,12.051 8.195,15.539 5.539,3.476 13.532,5.105 23.981,5.105 1.23,0 2.457,0 3.89,0 1.438,0 2.668,0 3.282,-0.207 l 0,0" /><path
         id="path90"
         style="fill:#1a67bb;fill-opacity:1;fill-rule:nonzero;stroke:none"
         d="m 819.762,357.207 c -3.489,5.93 -5.332,15.332 -5.332,28.203 0,12.07 1.633,21.067 4.918,27.403 3.074,6.125 8.398,9.199 15.773,9.406 6.973,0 12.301,-3.067 16.192,-9.211 3.691,-6.121 5.527,-15.32 5.527,-27.383 l 0,0 c 0,-12.676 -1.836,-22.09 -5.324,-28.215 -3.477,-6.344 -9.219,-9.402 -17.207,-9.402 -6.149,0 -11.071,3.058 -14.547,9.199 l 0,0" /><path
         id="path92"
         style="fill:#1a67bb;fill-opacity:1;fill-rule:nonzero;stroke:none"
         d="m 928.539,393.391 c 0.207,9.605 2.051,17.168 5.539,22.488 3.485,5.105 8.399,7.766 14.551,7.766 12.715,0 19.062,-10.024 19.062,-30.254 l -39.152,0 0,0" /><path
         id="path94"
         style="fill:#1a67bb;fill-opacity:1;fill-rule:nonzero;stroke:none"
         d="m 1379.54,383.777 0,-9.402 c 0,-8.379 -1.84,-15.129 -5.54,-20.234 -3.89,-5.321 -9.41,-7.969 -17,-7.969 -5.54,0 -9.62,1.621 -12.5,4.695 -2.87,3.071 -4.31,7.356 -4.31,12.473 0,6.941 2.67,12.051 8.2,15.539 5.54,3.476 13.53,5.105 23.98,5.105 1.23,0 2.46,0 3.9,0 1.43,0 2.66,0 3.27,-0.207 l 0,0" /><path
         id="path96"
         style="fill:#1a67bb;fill-opacity:1;fill-rule:nonzero;stroke:none"
         d="m 1121.95,136.797 c -2.56,8 -3.93,19.59 -3.93,34.402 0,14.836 1.37,26.418 3.93,34.59 2.56,8.176 7.34,12.27 14.01,12.27 6.83,0 11.6,-4.094 14.16,-12.09 2.57,-8.188 3.94,-19.77 3.94,-34.77 l 0,0 c 0,-14.812 -1.37,-26.402 -3.94,-34.402 -2.72,-8.176 -7.51,-12.274 -14.16,-12.274 -6.67,0 -11.45,4.098 -14.01,12.274 l 0,0" /><path
         id="path98"
         style="fill:#1a67bb;fill-opacity:1;fill-rule:nonzero;stroke:none"
         d="m 1214.51,136.797 c -2.56,8 -3.93,19.59 -3.93,34.402 0,14.836 1.37,26.418 3.93,34.59 2.56,8.176 7.34,12.27 14,12.27 6.84,0 11.61,-4.094 14.17,-12.09 2.57,-8.188 3.94,-19.77 3.94,-34.77 l 0,0 c 0,-14.812 -1.37,-26.402 -3.94,-34.402 -2.72,-8.176 -7.51,-12.274 -14.17,-12.274 -6.66,0 -11.44,4.098 -14,12.274 l 0,0" /><path
         id="path100"
         style="fill:#ffffff;fill-opacity:1;fill-rule:nonzero;stroke:none"
         d="m 255.875,1110.09 95.723,-111.285 0,0 c 5.136,-6.055 -0.235,-15.133 -8.176,-13.274 l 0,0 -71.434,17.929 8.168,-118.269 -61.168,0 8.168,118.269 -71.203,-17.929 0,0 c -7.707,-1.859 -13.543,7.219 -8.172,13.274 l 0,0 95.719,111.285 0,0 c 3.039,3.73 9.105,3.73 12.375,0 l 0,0" /><path
         id="path102"
         style="fill:#ffffff;fill-opacity:1;fill-rule:nonzero;stroke:none"
         d="m 502.074,946.188 c 4.918,-6.133 10.653,-10.629 17.414,-13.7 6.559,-3.258 13.731,-4.691 21.313,-4.691 7.992,0 15.371,1.433 22.129,4.488 6.761,3.07 12.508,7.57 17.422,13.695 4.921,5.93 8.812,13.708 11.675,22.907 2.664,9.199 4.102,20.234 4.102,32.703 l 0,0 c 0,12.07 -1.438,22.49 -4.102,31.48 -2.863,9 -6.754,16.56 -11.675,22.7 -4.914,5.93 -10.661,10.63 -17.211,13.7 -6.77,3.06 -13.938,4.49 -21.516,4.49 -7.992,0 -15.164,-1.43 -21.93,-4.49 -6.765,-3.07 -12.703,-7.58 -17.621,-13.5 -4.922,-6.13 -8.812,-13.9 -11.476,-23.09 -2.871,-9.21 -4.297,-20.25 -4.297,-32.72 0,-12.062 1.426,-22.488 4.297,-31.484 2.664,-8.988 6.554,-16.563 11.476,-22.488 l 0,0" /><path
         id="path104"
         style="fill:#ffffff;fill-opacity:1;fill-rule:nonzero;stroke:none"
         d="m 643.34,975.828 60.043,0 0,7.156 c 0,9.204 -1.024,16.965 -2.863,23.716 -1.852,6.75 -4.52,12.28 -7.997,16.56 -3.484,4.3 -7.781,7.36 -12.5,9.4 -4.921,2.06 -10.25,3.07 -15.98,3.07 -6.559,0 -12.5,-1.22 -17.621,-3.88 -5.328,-2.66 -9.844,-6.54 -13.32,-11.24 -3.489,-4.91 -6.36,-10.64 -8.204,-17.39 -1.839,-6.736 -2.863,-14.099 -2.863,-22.072 0,-7.57 1.024,-14.722 2.863,-21.265 1.844,-6.539 4.504,-12.055 8.399,-16.758 3.695,-4.703 8.406,-8.391 14.144,-11.047 5.735,-2.848 12.5,-4.07 20.082,-4.07 6.559,0 12.5,0.609 17.622,2.035 5.125,1.422 9.218,2.859 12.71,4.289 l 0,0 -1.035,17.781 0,0 c -2.66,-1.836 -6.136,-3.672 -10.238,-5.515 -4.309,-1.84 -9.43,-2.86 -15.582,-2.86 -9.832,0 -16.797,2.66 -21.102,8.172 -4.3,5.317 -6.558,13.289 -6.558,23.918 l 0,0" /><path
         id="path106"
         style="fill:#ffffff;fill-opacity:1;fill-rule:nonzero;stroke:none"
         d="m 734.582,929.43 21.316,0 0,62.14 c 0,8.18 1.641,14.73 5.118,19.43 3.277,4.7 8.203,6.95 14.964,6.95 5.528,0 9.418,-1.84 12.086,-5.52 2.465,-3.68 3.692,-9.61 3.692,-17.785 l 0,-65.215 21.308,0 0,70.117 c 0,11.043 -2.457,19.833 -7.375,26.373 -4.921,6.54 -12.703,9.81 -23.363,9.81 -6.144,0 -11.473,-1.43 -16.191,-4.5 -4.707,-3.06 -8.399,-7.35 -11.063,-12.87 l -0.406,0 0,0 c 0,0.62 0,1.84 0,3.27 -0.211,1.43 -0.211,3.06 -0.414,4.69 -0.199,1.64 -0.199,3.27 -0.199,4.71 -0.207,1.43 -0.207,2.66 -0.207,3.27 l -20.078,0 0,0 c 0.199,-3.07 0.406,-6.34 0.617,-9.61 0.195,-3.48 0.195,-6.95 0.195,-10.42 l 0,-84.84" /><path
         id="path108"
         style="fill:#ffffff;fill-opacity:1;fill-rule:nonzero;stroke:none"
         d="m 845.676,933.512 c 3.281,-1.434 7.367,-2.86 12.504,-3.883 4.91,-1.012 10.449,-1.621 16.386,-1.621 11.883,0 20.899,2.847 27.247,8.773 6.152,5.93 9.226,13.496 9.226,22.907 l 0,0 c 0,6.332 -1.844,11.441 -5.32,15.328 -3.703,3.882 -8.614,7.773 -14.973,11.246 l 0,0 -9.219,5.101 0,0 c -4.707,2.66 -8.191,4.91 -10.859,7.168 -2.656,2.039 -3.887,4.899 -3.887,8.379 0,3.68 1.231,6.75 3.887,8.99 2.668,2.25 6.562,3.27 11.887,3.27 4.304,0 8.398,-0.4 11.894,-1.22 3.465,-1.02 6.746,-2.05 9.629,-3.27 l 0,0 1.024,17.17 0,0 c -2.254,0.81 -5.332,1.63 -9.434,2.66 -4.297,0.82 -9.219,1.22 -14.754,1.22 -5.324,0 -10.039,-0.82 -14.336,-2.45 -4.316,-1.64 -8,-3.88 -11.066,-6.54 -3.086,-2.86 -5.535,-6.13 -7.18,-9.61 -1.637,-3.68 -2.457,-7.56 -2.457,-11.45 0,-3.68 0.613,-6.953 1.645,-9.813 1.019,-2.859 2.457,-5.308 4.3,-7.566 1.836,-2.242 3.887,-4.086 6.555,-5.723 2.664,-1.836 5.535,-3.476 8.816,-5.105 l 0,0 11.055,-5.524 0,0 c 4.719,-2.254 8,-4.703 9.836,-7.152 1.648,-2.453 2.469,-5.109 2.469,-7.77 0,-4.086 -1.641,-7.164 -4.922,-9.199 -3.281,-2.254 -7.781,-3.265 -13.32,-3.265 -5.118,0 -10.047,0.804 -14.344,2.656 -4.309,1.629 -7.988,3.269 -11.063,4.691 l 0,0 -1.226,-18.398 0,0" /><path
         id="path110"
         style="fill:#ffffff;fill-opacity:1;fill-rule:nonzero;stroke:none"
         d="m 943.324,929.43 21.309,0 0,104.87 -21.309,0 0,-104.87" /><path
         id="path112"
         style="fill:#ffffff;fill-opacity:1;fill-rule:nonzero;stroke:none"
         d="m 942.711,1055.36 22.539,0 0,22.69 -22.539,0 0,-22.69" /><path
         id="path114"
         style="fill:#ffffff;fill-opacity:1;fill-rule:nonzero;stroke:none"
         d="m 1000.38,929.43 21.32,0 0,62.14 c 0,8.18 1.64,14.73 5.11,19.43 3.28,4.7 8.21,6.95 14.97,6.95 5.53,0 9.43,-1.84 12.08,-5.52 2.47,-3.68 3.7,-9.61 3.7,-17.785 l 0,-65.215 21.3,0 0,70.117 c 0,11.043 -2.45,19.833 -7.36,26.373 -4.93,6.54 -12.71,9.81 -23.37,9.81 -6.15,0 -11.47,-1.43 -16.19,-4.5 -4.71,-3.06 -8.4,-7.35 -11.06,-12.87 l -0.42,0 0,0 c 0,0.62 0,1.84 0,3.27 -0.2,1.43 -0.2,3.06 -0.41,4.69 -0.19,1.64 -0.19,3.27 -0.19,4.71 -0.22,1.43 -0.22,2.66 -0.22,3.27 l -20.074,0 0,0 c 0.204,-3.07 0.411,-6.34 0.624,-9.61 0.19,-3.48 0.19,-6.95 0.19,-10.42 l 0,-84.84" /><path
         id="path116"
         style="fill:#ffffff;fill-opacity:1;fill-rule:nonzero;stroke:none"
         d="m 1113.92,910.422 -1.22,-19.836 0,0 c 3.49,-1.422 8.39,-2.856 14.55,-4.285 6.14,-1.434 12.49,-2.258 18.84,-2.258 15.59,0 27.27,4.301 35.05,12.68 7.79,8.379 11.68,20.445 11.68,35.976 l 0,83.821 c 0,3.07 0.2,5.92 0.41,8.99 0.2,3.07 0.2,5.93 0.41,8.79 l -19.68,0 0,0 c 0,-0.61 0,-1.84 0,-3.27 -0.19,-1.44 -0.19,-3.07 -0.4,-4.71 -0.2,-1.63 -0.2,-3.06 -0.2,-4.5 -0.21,-1.43 -0.21,-2.65 -0.21,-3.26 l -0.63,0 0,0 c -2.66,4.7 -6.13,8.8 -10.45,12.27 -4.29,3.27 -9.61,4.9 -16.18,4.9 -6.35,0 -12.1,-1.22 -16.8,-3.88 -4.72,-2.66 -8.81,-6.14 -11.89,-10.83 -3.06,-4.71 -5.52,-10.43 -6.96,-16.98 -1.64,-6.743 -2.46,-14.099 -2.46,-22.278 0,-9.813 1.02,-17.992 3.28,-24.735 2.04,-6.75 4.71,-12.269 8.19,-16.363 3.48,-4.285 7.38,-7.152 11.68,-8.988 4.31,-1.84 8.81,-2.856 13.32,-2.856 7.17,0 12.91,1.629 17.21,5.106 4.31,3.269 7.79,7.363 10.46,12.472 l 0.41,0 0,-13.082 c 0,-4.293 -0.41,-8.582 -1.23,-12.464 -1.03,-3.895 -2.46,-7.161 -4.51,-10.016 -2.26,-2.867 -5.13,-5.121 -8.81,-6.957 -3.69,-1.633 -8.4,-2.453 -13.94,-2.453 -5.73,0 -11.27,1.019 -16.8,2.867 -5.53,2.047 -9.84,4.082 -13.12,6.129 l 0,0" /><path
         id="path118"
         style="fill:#ffffff;fill-opacity:1;fill-rule:nonzero;stroke:none"
         d="m 1243.61,975.828 60.05,0 0,7.156 c 0,9.204 -1.03,16.965 -2.86,23.716 -1.86,6.75 -4.53,12.28 -8,16.56 -3.49,4.3 -7.78,7.36 -12.5,9.4 -4.92,2.06 -10.25,3.07 -15.99,3.07 -6.55,0 -12.5,-1.22 -17.61,-3.88 -5.34,-2.66 -9.85,-6.54 -13.32,-11.24 -3.49,-4.91 -6.36,-10.64 -8.21,-17.39 -1.83,-6.736 -2.86,-14.099 -2.86,-22.072 0,-7.57 1.03,-14.722 2.86,-21.265 1.85,-6.539 4.51,-12.055 8.4,-16.758 3.69,-4.703 8.41,-8.391 14.14,-11.047 5.74,-2.848 12.5,-4.07 20.09,-4.07 6.56,0 12.5,0.609 17.63,2.035 5.11,1.422 9.21,2.859 12.7,4.289 l 0,0 -1.04,17.781 0,0 c -2.65,-1.836 -6.13,-3.672 -10.23,-5.515 -4.31,-1.84 -9.43,-2.86 -15.59,-2.86 -9.83,0 -16.79,2.66 -21.1,8.172 -4.29,5.317 -6.56,13.289 -6.56,23.918 l 0,0" /><path
         id="path120"
         style="fill:#ffffff;fill-opacity:1;fill-rule:nonzero;stroke:none"
         d="m 1334.85,929.43 21.32,0 0,62.14 c 0,8.18 1.64,14.73 5.12,19.43 3.28,4.7 8.2,6.95 14.96,6.95 5.53,0 9.43,-1.84 12.09,-5.52 2.46,-3.68 3.7,-9.61 3.7,-17.785 l 0,-65.215 21.3,0 0,70.117 c 0,11.043 -2.46,19.833 -7.37,26.373 -4.92,6.54 -12.71,9.81 -23.37,9.81 -6.15,0 -11.47,-1.43 -16.19,-4.5 -4.71,-3.06 -8.4,-7.35 -11.06,-12.87 l -0.41,0 0,0 c 0,0.62 0,1.84 0,3.27 -0.21,1.43 -0.21,3.06 -0.41,4.69 -0.2,1.64 -0.2,3.27 -0.2,4.71 -0.21,1.43 -0.21,2.66 -0.21,3.27 l -20.08,0 0,0 c 0.2,-3.07 0.41,-6.34 0.62,-9.61 0.19,-3.48 0.19,-6.95 0.19,-10.42 l 0,-84.84" /><path
         id="path122"
         style="fill:#007f46;fill-opacity:1;fill-rule:nonzero;stroke:none"
         d="m 517.441,959.883 c -5.531,9.812 -8.191,23.312 -8.191,40.277 0,10.43 0.816,19.22 2.66,26.37 1.637,7.16 3.895,13.08 6.961,17.58 2.879,4.3 6.359,7.57 10.254,9.62 3.895,1.83 8.195,2.86 12.5,2.86 10.238,0 18.023,-4.91 23.563,-14.73 5.332,-9.81 7.992,-23.3 7.992,-40.27 l 0,0 c 0,-10.422 -0.821,-19.219 -2.457,-26.371 -1.852,-7.153 -4.098,-13.078 -6.973,-17.375 -3.07,-4.5 -6.555,-7.77 -10.449,-9.61 -3.891,-2.046 -8.199,-3.062 -12.5,-3.062 -10.25,0 -18.031,4.902 -23.36,14.711 l 0,0" /><path
         id="path124"
         style="fill:#007f46;fill-opacity:1;fill-rule:nonzero;stroke:none"
         d="m 643.34,990.348 c 0.211,9.601 2.051,17.172 5.539,22.492 3.484,5.11 8.394,7.77 14.543,7.77 12.711,0 19.058,-10.02 19.058,-30.262 l -39.14,0 0,0" /><path
         id="path126"
         style="fill:#007f46;fill-opacity:1;fill-rule:nonzero;stroke:none"
         d="m 1134.83,954.16 c -3.49,5.934 -5.32,15.336 -5.32,28.211 0,12.067 1.63,21.059 4.91,27.409 3.08,6.12 8.4,9.2 15.77,9.39 6.97,0 12.31,-3.06 16.2,-9.2 3.68,-6.13 5.53,-15.325 5.53,-27.392 l 0,0 c 0,-12.676 -1.85,-22.086 -5.33,-28.207 -3.48,-6.344 -9.22,-9.406 -17.21,-9.406 -6.15,0 -11.08,3.062 -14.55,9.195 l 0,0" /><path
         id="path128"
         style="fill:#007f46;fill-opacity:1;fill-rule:nonzero;stroke:none"
         d="m 1243.61,990.348 c 0.21,9.601 2.06,17.172 5.53,22.492 3.5,5.11 8.41,7.77 14.56,7.77 12.71,0 19.06,-10.02 19.06,-30.262 l -39.15,0 0,0" /></g></g></svg>