<?xml version="1.0" encoding="UTF-8" standalone="no"?>
<svg
   width="30in"
   height="30in"
   viewBox="0 0 2160 2160"
   version="1.1"
   id="svg5"
   sodipodi:docname="STOP-sign.svg"
   inkscape:version="1.4.3 (0d15f75, 2025-12-25)"
   xmlns:inkscape="http://www.inkscape.org/namespaces/inkscape"
   xmlns:sodipodi="http://sodipodi.sourceforge.net/DTD/sodipodi-0.dtd"
   xmlns="http://www.w3.org/2000/svg"
   xmlns:svg="http://www.w3.org/2000/svg">
  <sodipodi:namedview
     id="namedview5"
     pagecolor="#ffffff"
     bordercolor="#000000"
     borderopacity="0.25"
     inkscape:showpageshadow="2"
     inkscape:pageopacity="0.0"
     inkscape:pagecheckerboard="0"
     inkscape:deskcolor="#d1d1d1"
     inkscape:document-units="in"
     inkscape:zoom="0.20347222"
     inkscape:cx="1440"
     inkscape:cy="1440"
     inkscape:current-layer="svg5" />
  <defs
     id="defs1">
    <style
       id="style1">.a{fill:#fff;}</style>
  </defs>
  <polygon
     class="a"
     points="1527.4 0 632.65 0 0 632.65 0 1527.4 632.65 2160 1527.4 2160 2160 1527.4 2160 632.65"
     id="polygon1" />
  <path
     d="M1526.417,2.254l631.329,631.329v892.834l-631.329,631.329H633.583L2.254,1526.417V633.583L633.583,2.254h892.834M1527.351,0h-894.7L0,632.649v894.7L632.649,2160h894.7L2160,1527.351v-894.7L1527.351,0Z"
     id="path1" />
  <polygon
     points="655.02 2106 54 1505 54 655.02 655.02 54 1505 54 2106 655.02 2106 1505 1505 2106"
     fill="#af1e2d"
     id="polygon2" />
  <g
     id="STOP"
     style="display:none"
     transform="translate(0.02,-0.0805)">
    <path
       class="a"
       d="m 382.95,1351.7 c 55.8,0 101.43,-50.58 101.43,-108.72 -0.09,-153.36 -268.83,-153 -268.83,-348.75 0,-103.59 81.18,-186.84 185.13,-186.84 101.52,0 180.18,78.21 182.7,186.93 h -99.09 c -2.52,-50.49 -38.071,-83.34 -83.7,-83.34 -48.24,0 -86.22,35.28 -86.22,83.25 0,43.111 27.09,60.3 60.66,81.361 97.38,58.77 208.26,129.69 208.26,267.48 0,116.55 -88.829,209.7 -200.43,209.7 -126.81,0 -202.86,-107.28 -202.86,-225 h 101.61 c 0,61.29 30.33,123.93 101.34,123.93 z"
       id="path2" />
    <path
       class="a"
       d="M 866.161,1440 H 762.3 V 816.034 H 630.541 V 720 h 367.38 v 96.031 h -131.76 z"
       id="path3" />
    <path
       class="a"
       d="m 1057,1078.5 c 0,-377.01 174.87,-370.98 213.66,-370.98 38.79,0 211.32,-5.76 211.32,371.25 0,379.71 -172.53,373.77 -211.32,373.77 -38.79,0 -213.66,5.939 -213.66,-374.04 z m 212.49,-270 c -20.521,0 -113.31,-4.23 -113.31,270.54 0,276.75 92.79,272.52 113.31,272.52 20.52,0 113.22,4.23 113.22,-272.52 0,-274.77 -92.699,-270.54 -113.22,-270.54 z"
       id="path4" />
    <path
       class="a"
       d="m 1679.9,1124.2 v 315.81 h -103.32 v -720 h 214.29 c 113.49,0 189.09,81.183 189.09,202.14 0,131.4 -68.13,202.05 -189.09,202.05 z m 0,-98.55 h 105.84 c 60.48,0 93.33,-37.8 93.33,-103.5 0,-60.661 -38.161,-101.07 -93.24,-101.07 H 1679.9 Z"
       id="path5"
       style="display:inline" />
  </g>
  <g
     id="g9"
     style="display:inline"
     inkscape:label="TOT"
     transform="translate(-216.2705,0.05066331)">
    <path
       class="a"
       d="M 866.181,1439.9195 H 762.32 V 815.9535 H 630.561 v -96.034 h 367.38 v 96.031 h -131.76 z"
       id="path7" />
    <path
       class="a"
       d="m 1083.7805,1078.4195 c 0,-377.01 174.87,-370.98 213.66,-370.98 38.79,0 211.32,-5.76 211.32,371.25 0,379.71 -172.53,373.77 -211.32,373.77 -38.79,0 -213.66,5.939 -213.66,-374.04 z m 212.49,-270 c -20.521,0 -113.31,-4.23 -113.31,270.54 0,276.75 92.79,272.52 113.31,272.52 20.52,0 113.22,4.23 113.22,-272.52 0,-274.77 -92.699,-270.54 -113.22,-270.54 z"
       id="path8" />
    <path
       class="a"
       d="M 1830.22,1439.9195 H 1726.359 V 815.9535 H 1594.6 v -96.034 h 367.38 v 96.031 h -131.76 z"
       id="path9" />
  </g>
</svg>
